<svg width="235" height="172" viewBox="0 0 235 172" fill="none" xmlns="http://www.w3.org/2000/svg">
<path d="M8.42285 168.355H169.034V8L8.42285 168.355ZM138.994 138.544H79.2506L138.994 78.8991V138.544Z" fill="#B2B3B4" stroke="#333333" stroke-width="6.384" stroke-miterlimit="10"/>
<path d="M28.1016 160.018V168.355" stroke="#333333" stroke-width="6.384" stroke-miterlimit="10"/>
<path d="M38.2197 160.018V168.355" stroke="#333333" stroke-width="6.384" stroke-miterlimit="10"/>
<path d="M48.3379 160.018V168.355" stroke="#333333" stroke-width="6.384" stroke-miterlimit="10"/>
<path d="M58.4561 160.018V168.355" stroke="#333333" stroke-width="6.384" stroke-miterlimit="10"/>
<path d="M68.5752 160.018V168.355" stroke="#333333" stroke-width="6.384" stroke-miterlimit="10"/>
<path d="M78.6934 160.018V168.355" stroke="#333333" stroke-width="6.384" stroke-miterlimit="10"/>
<path d="M88.8115 160.018V168.355" stroke="#333333" stroke-width="6.384" stroke-miterlimit="10"/>
<path d="M98.9287 160.018V168.355" stroke="#333333" stroke-width="6.384" stroke-miterlimit="10"/>
<path d="M109.047 160.018V168.355" stroke="#333333" stroke-width="6.384" stroke-miterlimit="10"/>
<path d="M119.166 160.018V168.355" stroke="#333333" stroke-width="6.384" stroke-miterlimit="10"/>
<path d="M129.284 160.018V168.355" stroke="#333333" stroke-width="6.384" stroke-miterlimit="10"/>
<path d="M139.402 160.018V168.355" stroke="#333333" stroke-width="6.384" stroke-miterlimit="10"/>
<path d="M149.521 160.018V168.355" stroke="#333333" stroke-width="6.384" stroke-miterlimit="10"/>
<path d="M159.639 160.018V168.355" stroke="#333333" stroke-width="6.384" stroke-miterlimit="10"/>
<path d="M231.48 136.607C231.48 139.665 228.998 142.152 225.926 142.152H161.745C158.673 142.152 156.183 139.665 156.183 136.607V40.8613C156.183 37.7947 158.673 35.3086 161.745 35.3086H225.926C228.998 35.3086 231.48 37.7947 231.48 40.8613V136.607Z" fill="white" stroke="#333333" stroke-width="6.384" stroke-miterlimit="10"/>
<path d="M222.957 48.1699H164.706V61.087H222.957V48.1699Z" fill="#B2B3B4" stroke="#333333" stroke-width="6.384" stroke-miterlimit="10"/>
<path d="M181.102 72.2324H170.072V83.2359H181.102V72.2324Z" fill="#B2B3B4" stroke="#333333" stroke-width="6.384" stroke-miterlimit="10"/>
<path d="M199.343 72.2324H188.321V83.2359H199.343V72.2324Z" fill="#B2B3B4" stroke="#333333" stroke-width="6.384" stroke-miterlimit="10"/>
<path d="M217.592 72.2324H206.57V83.2359H217.592V72.2324Z" fill="#B2B3B4" stroke="#333333" stroke-width="6.384" stroke-miterlimit="10"/>
<path d="M181.102 90.7266H170.072V101.73H181.102V90.7266Z" fill="#B2B3B4" stroke="#333333" stroke-width="6.384" stroke-miterlimit="10"/>
<path d="M199.343 90.7266H188.321V101.73H199.343V90.7266Z" fill="#B2B3B4" stroke="#333333" stroke-width="6.384" stroke-miterlimit="10"/>
<path d="M217.592 90.7266H206.57V101.73H217.592V90.7266Z" fill="#B2B3B4" stroke="#333333" stroke-width="6.384" stroke-miterlimit="10"/>
<path d="M181.102 109.227H170.072V120.23H181.102V109.227Z" fill="#B2B3B4" stroke="#333333" stroke-width="6.384" stroke-miterlimit="10"/>
<path d="M199.343 109.227H188.321V120.23H199.343V109.227Z" fill="#B2B3B4" stroke="#333333" stroke-width="6.384" stroke-miterlimit="10"/>
<path d="M217.592 109.227H206.57V120.23H217.592V109.227Z" fill="#B2B3B4" stroke="#333333" stroke-width="6.384" stroke-miterlimit="10"/>
<path d="M224.449 118.199V129.995C224.449 133.061 221.959 135.548 218.888 135.548H200.497" stroke="#333333" stroke-width="6.384" stroke-miterlimit="10"/>
<path d="M27.6458 123.353L17.3154 113.04L95.339 35.1445L105.669 45.4578L27.6458 123.353Z" fill="#B2B3B4" stroke="#333333" stroke-width="6.384" stroke-miterlimit="10" stroke-linecap="round" stroke-linejoin="round"/>
<path d="M105.668 45.4575L95.3379 35.1443L100.813 29.6777L111.144 39.9911L105.668 45.4575Z" stroke="#333333" stroke-width="6.384" stroke-miterlimit="10" stroke-linecap="round" stroke-linejoin="round"/>
<path d="M111.144 39.9912L114.113 37.0188C116.965 34.1719 116.965 29.5603 114.113 26.7133C111.269 23.8664 106.635 23.8664 103.791 26.7133L100.813 29.6857L111.144 39.9912Z" stroke="#333333" stroke-width="6.384" stroke-miterlimit="10" stroke-linecap="round" stroke-linejoin="round"/>
<path d="M17.3151 113.039L27.6454 123.352L10.1191 130.536L17.3151 113.039Z" stroke="#333333" stroke-width="6.384" stroke-miterlimit="10" stroke-linecap="round" stroke-linejoin="round"/>
<path d="M13.67 121.902L10.1191 130.537L18.7684 126.992L13.67 121.902Z" stroke="#333333" stroke-width="6.384" stroke-miterlimit="10" stroke-linecap="round" stroke-linejoin="round"/>
<path d="M100.5 40.3047L22.4844 118.2" stroke="#333333" stroke-width="6.384" stroke-miterlimit="10" stroke-linecap="round" stroke-linejoin="round"/>
</svg>
