<svg width="111" height="23" viewBox="0 0 111 23" fill="none" xmlns="http://www.w3.org/2000/svg">
<path fill-rule="evenodd" clip-rule="evenodd" d="M77.0287 1.02797C77.4097 1.0287 77.7571 1.24547 77.9251 1.58713L80.7691 7.37395L87.1513 8.31078C87.5283 8.36613 87.8411 8.63069 87.9581 8.99313C88.0752 9.35557 87.976 9.75297 87.7024 10.0181L83.0676 14.5091L84.1461 20.8656C84.2098 21.2411 84.0546 21.6201 83.7458 21.8432C83.4369 22.0663 83.0281 22.0947 82.6913 21.9166L77.0008 18.906L71.285 21.8951C70.9475 22.0716 70.539 22.0413 70.2313 21.8169C69.9235 21.5926 69.7699 21.2132 69.8351 20.8381L70.9381 14.4858L66.3206 9.97697C66.048 9.71082 65.9504 9.31304 66.0688 8.95106C66.1872 8.58906 66.5011 8.32571 66.8784 8.27181L73.264 7.35952L76.1304 1.58368C76.2995 1.24267 76.6479 1.02724 77.0287 1.02797Z" fill="white"/>
<path fill-rule="evenodd" clip-rule="evenodd" d="M11.0336 1.02113C11.4146 1.02187 11.762 1.23863 11.93 1.5803L14.774 7.36712L21.1561 8.30395C21.5332 8.35929 21.846 8.62385 21.963 8.9863C22.0801 9.34873 21.9808 9.74613 21.7072 10.0112L17.0725 14.5023L18.151 20.8588C18.2147 21.2343 18.0595 21.6133 17.7506 21.8364C17.4418 22.0595 17.033 22.0879 16.6962 21.9098L11.0057 18.8992L5.28989 21.8882C4.9524 22.0648 4.5439 22.0345 4.23616 21.8101C3.92843 21.5858 3.77483 21.2063 3.83996 20.8312L4.94297 14.4789L0.325499 9.97014C0.0529254 9.70398 -0.0447013 9.3062 0.073703 8.94422C0.192107 8.58223 0.505986 8.31887 0.883249 8.26497L7.2689 7.35269L10.1352 1.57685C10.3044 1.23583 10.6528 1.0204 11.0336 1.02113Z" fill="white"/>
<path fill-rule="evenodd" clip-rule="evenodd" d="M99.0287 1.02113C99.4097 1.02187 99.7571 1.23863 99.9251 1.5803L102.769 7.36712L109.151 8.30395C109.528 8.35929 109.841 8.62385 109.958 8.9863C110.075 9.34873 109.976 9.74613 109.702 10.0112L105.068 14.5023L106.146 20.8588C106.21 21.2343 106.055 21.6133 105.746 21.8364C105.437 22.0595 105.028 22.0879 104.691 21.9098L99.0008 18.8992L93.285 21.8882C92.9475 22.0648 92.539 22.0345 92.2313 21.8101C91.9235 21.5858 91.7699 21.2063 91.8351 20.8312L92.9381 14.4789L88.3206 9.97014C88.048 9.70398 87.9504 9.3062 88.0688 8.94422C88.1872 8.58223 88.5011 8.31887 88.8784 8.26497L95.264 7.35269L98.1304 1.57685C98.2995 1.23583 98.6479 1.0204 99.0287 1.02113Z" fill="white"/>
<path fill-rule="evenodd" clip-rule="evenodd" d="M33.0287 0.983047C33.4097 0.98378 33.7571 1.20055 33.9251 1.54221L36.7691 7.32903L43.1513 8.26586C43.5283 8.3212 43.8411 8.58577 43.9581 8.94821C44.0752 9.31065 43.976 9.70805 43.7024 9.97315L39.0676 14.4642L40.1461 20.8207C40.2098 21.1962 40.0546 21.5752 39.7458 21.7983C39.4369 22.0214 39.0281 22.0498 38.6913 21.8717L33.0008 18.8611L27.285 21.8501C26.9475 22.0267 26.539 21.9964 26.2313 21.772C25.9235 21.5477 25.7699 21.1682 25.8351 20.7932L26.9381 14.4409L22.3206 9.93205C22.048 9.6659 21.9504 9.26812 22.0688 8.90613C22.1872 8.54414 22.5011 8.28078 22.8784 8.22689L29.264 7.3146L32.1304 1.53876C32.2995 1.19775 32.6479 0.982315 33.0287 0.983047Z" fill="white"/>
<path fill-rule="evenodd" clip-rule="evenodd" d="M55.0287 1.02797C55.4097 1.0287 55.7571 1.24547 55.9251 1.58713L58.7691 7.37395L65.1513 8.31078C65.5283 8.36613 65.8411 8.63069 65.9581 8.99313C66.0752 9.35557 65.976 9.75297 65.7024 10.0181L61.0676 14.5091L62.1461 20.8656C62.2098 21.2411 62.0546 21.6201 61.7458 21.8432C61.4369 22.0663 61.0281 22.0947 60.6913 21.9166L55.0008 18.906L49.285 21.8951C48.9475 22.0716 48.539 22.0413 48.2313 21.8169C47.9235 21.5926 47.7699 21.2132 47.8351 20.8381L48.9381 14.4858L44.3206 9.97697C44.048 9.71082 43.9504 9.31304 44.0688 8.95106C44.1872 8.58906 44.5011 8.32571 44.8784 8.27181L51.264 7.35952L54.1304 1.58368C54.2995 1.24267 54.6479 1.02724 55.0287 1.02797Z" fill="white"/>
</svg>
