<svg width="112" height="23" viewBox="0 0 112 23" fill="none" xmlns="http://www.w3.org/2000/svg">
<path fill-rule="evenodd" clip-rule="evenodd" d="M34.0336 1.02113C34.4146 1.02187 34.762 1.23863 34.93 1.5803L37.774 7.36712L44.1561 8.30395C44.5332 8.35929 44.846 8.62385 44.963 8.9863C45.0801 9.34873 44.9808 9.74613 44.7072 10.0112L40.0725 14.5023L41.151 20.8588C41.2147 21.2343 41.0595 21.6133 40.7506 21.8364C40.4418 22.0595 40.033 22.0879 39.6962 21.9098L34.0057 18.8992L28.2899 21.8882C27.9524 22.0648 27.5439 22.0345 27.2362 21.8101C26.9284 21.5858 26.7748 21.2063 26.84 20.8312L27.943 14.4789L23.3255 9.97014C23.0529 9.70398 22.9553 9.3062 23.0737 8.94422C23.1921 8.58223 23.506 8.31887 23.8832 8.26497L30.2689 7.35269L33.1352 1.57685C33.3044 1.23583 33.6528 1.0204 34.0336 1.02113Z" fill="#38454C"/>
<path fill-rule="evenodd" clip-rule="evenodd" d="M56.0336 1.02113C56.4146 1.02187 56.762 1.23863 56.93 1.5803L59.774 7.36712L66.1561 8.30395C66.5332 8.35929 66.846 8.62385 66.963 8.9863C67.0801 9.34873 66.9808 9.74613 66.7072 10.0112L62.0725 14.5023L63.151 20.8588C63.2147 21.2343 63.0595 21.6133 62.7506 21.8364C62.4418 22.0595 62.033 22.0879 61.6962 21.9098L56.0057 18.8992L50.2899 21.8882C49.9524 22.0648 49.5439 22.0345 49.2362 21.8101C48.9284 21.5858 48.7748 21.2063 48.84 20.8312L49.943 14.4789L45.3255 9.97014C45.0529 9.70398 44.9553 9.3062 45.0737 8.94422C45.1921 8.58223 45.506 8.31887 45.8832 8.26497L52.2689 7.35269L55.1352 1.57685C55.3044 1.23583 55.6528 1.0204 56.0336 1.02113Z" fill="#38454C"/>
<path fill-rule="evenodd" clip-rule="evenodd" d="M78.0336 1.02113C78.4146 1.02187 78.762 1.23863 78.93 1.5803L81.774 7.36712L88.1561 8.30395C88.5332 8.35929 88.846 8.62385 88.963 8.9863C89.0801 9.34873 88.9808 9.74613 88.7072 10.0112L84.0725 14.5023L85.151 20.8588C85.2147 21.2343 85.0595 21.6133 84.7506 21.8364C84.4418 22.0595 84.033 22.0879 83.6962 21.9098L78.0057 18.8992L72.2899 21.8882C71.9524 22.0648 71.5439 22.0345 71.2362 21.8101C70.9284 21.5858 70.7748 21.2063 70.84 20.8312L71.943 14.4789L67.3255 9.97014C67.0529 9.70398 66.9553 9.3062 67.0737 8.94422C67.1921 8.58223 67.506 8.31887 67.8832 8.26497L74.2689 7.35269L77.1352 1.57685C77.3044 1.23583 77.6528 1.0204 78.0336 1.02113Z" fill="#38454C"/>
<path fill-rule="evenodd" clip-rule="evenodd" d="M100.034 1.02113C100.415 1.02187 100.762 1.23863 100.93 1.5803L103.774 7.36712L110.156 8.30395C110.533 8.35929 110.846 8.62385 110.963 8.9863C111.08 9.34873 110.981 9.74613 110.707 10.0112L106.072 14.5023L107.151 20.8588C107.215 21.2343 107.059 21.6133 106.751 21.8364C106.442 22.0595 106.033 22.0879 105.696 21.9098L100.006 18.8992L94.2899 21.8882C93.9524 22.0648 93.5439 22.0345 93.2362 21.8101C92.9284 21.5858 92.7748 21.2063 92.84 20.8312L93.943 14.4789L89.3255 9.97014C89.0529 9.70398 88.9553 9.3062 89.0737 8.94422C89.1921 8.58223 89.506 8.31887 89.8832 8.26497L96.2689 7.35269L99.1352 1.57685C99.3044 1.23583 99.6528 1.0204 100.034 1.02113Z" fill="#38454C"/>
<path fill-rule="evenodd" clip-rule="evenodd" d="M12.0287 1.02113C12.4097 1.02187 12.7571 1.23863 12.9251 1.5803L15.7691 7.36712L22.1513 8.30395C22.5283 8.35929 22.8411 8.62385 22.9581 8.9863C23.0752 9.34873 22.976 9.74613 22.7024 10.0112L18.0676 14.5023L19.1461 20.8588C19.2098 21.2343 19.0546 21.6133 18.7458 21.8364C18.4369 22.0595 18.0281 22.0879 17.6913 21.9098L12.0008 18.8992L6.28501 21.8882C5.94751 22.0648 5.53902 22.0345 5.23128 21.8101C4.92354 21.5858 4.76995 21.2063 4.83507 20.8312L5.93809 14.4789L1.32062 9.97014C1.04804 9.70398 0.950416 9.3062 1.06882 8.94422C1.18722 8.58223 1.5011 8.31887 1.87837 8.26497L8.26401 7.35269L11.1304 1.57685C11.2995 1.23583 11.6479 1.0204 12.0287 1.02113Z" fill="#38454C"/>
</svg>
