<svg width="191" height="166" viewBox="0 0 191 166" fill="none" xmlns="http://www.w3.org/2000/svg">
<g clip-path="url(#clip0_288037_18123)">
<path d="M86.5848 147.622C89.7506 168.939 40.1963 169.59 36.0014 137.356C15.6156 143.058 1.53799 123.411 11.397 106.047C-0.42596 97.9928 -0.205971 74.4957 12.1119 67.4529C2.70067 57.4376 14.1151 29.3994 36.8812 34.4031C30.6673 11.8864 63.583 -6.46586 86.7182 11.4785L86.5848 147.622Z" stroke="#333333" stroke-width="6" stroke-miterlimit="10"/>
<path d="M36.1904 29.3984C37.8873 39.3902 46.6936 47.1311 56.749 48.9271" stroke="#333333" stroke-width="6" stroke-miterlimit="10"/>
<path d="M56.7482 21.8867C54.4229 36.8195 79.5222 43.0859 86.341 33.4" stroke="#333333" stroke-width="6" stroke-miterlimit="10"/>
<path d="M44.2112 43.9238C44.1719 49.1628 37.1488 55.8763 33.1816 57.437" stroke="#333333" stroke-width="6" stroke-miterlimit="10"/>
<path d="M28.6631 74.4565C34.8456 77.578 34.987 86.558 41.6802 88.5501C48.6954 90.6363 52.5133 82.8954 55.3335 77.5309C59.6228 69.3351 66.0096 66.0176 75.2951 67.4764C78.3274 67.9548 83.5829 70.0723 85.3347 70.9586" stroke="#333333" stroke-width="6" stroke-miterlimit="10"/>
<path d="M21.6406 73.9626C26.4484 79.9153 34.1549 71.1235 29.1664 65.9551" stroke="#333333" stroke-width="6" stroke-miterlimit="10"/>
<path d="M86.8357 105.005C80.2525 98.4485 69.9929 105.844 67.7854 112.942C65.1773 121.302 73.1038 128.11 70.315 136.251C68.626 141.192 64.7374 143.372 59.7568 142.549" stroke="#333333" stroke-width="6" stroke-miterlimit="10"/>
<path d="M36.1895 141.543C28.4594 121.348 66.7799 127.034 50.2278 96.4863" stroke="#333333" stroke-width="6" stroke-miterlimit="10"/>
<path d="M11.1064 107.005C13.856 102.519 20.4077 102.189 25.184 102.48C29.5047 102.746 34.3596 105.993 36.1821 106.503" stroke="#333333" stroke-width="6" stroke-miterlimit="10"/>
<path d="M186.378 96.5023L187.101 74.4717L173.722 74.0325C172.913 69.4601 171.649 65.0447 169.967 60.8331L182.238 54.1196L171.617 34.7948L158.569 41.9396C155.756 38.6457 152.638 35.6183 149.252 32.9047L157.045 19.7523L138.042 8.52134L130.005 22.0816C126.109 20.6699 122.031 19.6033 117.836 18.9131V3H106.925V162.735H117.836V152.869C121.992 152.194 126.022 151.143 129.887 149.747L134.593 158.57L154.083 148.234L149.157 138.971C152.795 136.062 156.141 132.807 159.119 129.23L168.326 135.089L180.196 116.494L170.282 110.188C172.01 105.71 173.283 100.988 174.021 96.1023L186.378 96.5023Z" stroke="#333333" stroke-width="6" stroke-miterlimit="10"/>
<path d="M106.916 34.6855V49.885C125.11 49.9556 139.84 64.6922 139.84 82.8719C139.84 101.052 125.118 115.796 106.916 115.859V131.05C133.508 130.98 155.056 109.436 155.056 82.8719C155.048 56.2926 133.508 34.7561 106.916 34.6855Z" fill="#B2B3B4" stroke="#333333" stroke-width="6" stroke-miterlimit="10"/>
</g>
<defs>
<clipPath id="clip0_288037_18123">
<rect width="191" height="166" fill="white"/>
</clipPath>
</defs>
</svg>
