<svg width="234" height="172" viewBox="0 0 234 172" fill="none" xmlns="http://www.w3.org/2000/svg">
<g clip-path="url(#clip0_288037_18121)">
<path d="M7.42285 168.355H168.034V8L7.42285 168.355ZM137.994 138.544H78.2506L137.994 78.8991V138.544Z" fill="#B2B3B4" stroke="#333333" stroke-width="6.384" stroke-miterlimit="10"/>
<path d="M27.1016 160.018V168.355" stroke="#333333" stroke-width="6.384" stroke-miterlimit="10"/>
<path d="M37.2197 160.018V168.355" stroke="#333333" stroke-width="6.384" stroke-miterlimit="10"/>
<path d="M47.3379 160.018V168.355" stroke="#333333" stroke-width="6.384" stroke-miterlimit="10"/>
<path d="M57.4561 160.018V168.355" stroke="#333333" stroke-width="6.384" stroke-miterlimit="10"/>
<path d="M67.5752 160.018V168.355" stroke="#333333" stroke-width="6.384" stroke-miterlimit="10"/>
<path d="M77.6934 160.018V168.355" stroke="#333333" stroke-width="6.384" stroke-miterlimit="10"/>
<path d="M87.8115 160.018V168.355" stroke="#333333" stroke-width="6.384" stroke-miterlimit="10"/>
<path d="M97.9287 160.018V168.355" stroke="#333333" stroke-width="6.384" stroke-miterlimit="10"/>
<path d="M108.047 160.018V168.355" stroke="#333333" stroke-width="6.384" stroke-miterlimit="10"/>
<path d="M118.166 160.018V168.355" stroke="#333333" stroke-width="6.384" stroke-miterlimit="10"/>
<path d="M128.284 160.018V168.355" stroke="#333333" stroke-width="6.384" stroke-miterlimit="10"/>
<path d="M138.402 160.018V168.355" stroke="#333333" stroke-width="6.384" stroke-miterlimit="10"/>
<path d="M148.521 160.018V168.355" stroke="#333333" stroke-width="6.384" stroke-miterlimit="10"/>
<path d="M158.639 160.018V168.355" stroke="#333333" stroke-width="6.384" stroke-miterlimit="10"/>
<path d="M230.48 136.607C230.48 139.665 227.998 142.152 224.926 142.152H160.745C157.673 142.152 155.183 139.665 155.183 136.607V40.8613C155.183 37.7947 157.673 35.3086 160.745 35.3086H224.926C227.998 35.3086 230.48 37.7947 230.48 40.8613V136.607Z" fill="white" stroke="#333333" stroke-width="6.384" stroke-miterlimit="10"/>
<path d="M221.957 48.1699H163.706V61.087H221.957V48.1699Z" fill="#B2B3B4" stroke="#333333" stroke-width="6.384" stroke-miterlimit="10"/>
<path d="M180.102 72.2324H169.072V83.2359H180.102V72.2324Z" fill="#B2B3B4" stroke="#333333" stroke-width="6.384" stroke-miterlimit="10"/>
<path d="M198.343 72.2324H187.321V83.2359H198.343V72.2324Z" fill="#B2B3B4" stroke="#333333" stroke-width="6.384" stroke-miterlimit="10"/>
<path d="M216.592 72.2324H205.57V83.2359H216.592V72.2324Z" fill="#B2B3B4" stroke="#333333" stroke-width="6.384" stroke-miterlimit="10"/>
<path d="M180.102 90.7266H169.072V101.73H180.102V90.7266Z" fill="#B2B3B4" stroke="#333333" stroke-width="6.384" stroke-miterlimit="10"/>
<path d="M198.343 90.7266H187.321V101.73H198.343V90.7266Z" fill="#B2B3B4" stroke="#333333" stroke-width="6.384" stroke-miterlimit="10"/>
<path d="M216.592 90.7266H205.57V101.73H216.592V90.7266Z" fill="#B2B3B4" stroke="#333333" stroke-width="6.384" stroke-miterlimit="10"/>
<path d="M180.102 109.227H169.072V120.23H180.102V109.227Z" fill="#B2B3B4" stroke="#333333" stroke-width="6.384" stroke-miterlimit="10"/>
<path d="M198.343 109.227H187.321V120.23H198.343V109.227Z" fill="#B2B3B4" stroke="#333333" stroke-width="6.384" stroke-miterlimit="10"/>
<path d="M216.592 109.227H205.57V120.23H216.592V109.227Z" fill="#B2B3B4" stroke="#333333" stroke-width="6.384" stroke-miterlimit="10"/>
<path d="M223.449 118.199V129.995C223.449 133.061 220.959 135.548 217.888 135.548H199.497" stroke="#333333" stroke-width="6.384" stroke-miterlimit="10"/>
<path d="M26.6458 123.353L16.3154 113.04L94.339 35.1445L104.669 45.4578L26.6458 123.353Z" fill="#B2B3B4" stroke="#333333" stroke-width="6.384" stroke-miterlimit="10" stroke-linecap="round" stroke-linejoin="round"/>
<path d="M104.668 45.4575L94.3379 35.1443L99.8134 29.6777L110.144 39.9911L104.668 45.4575Z" stroke="#333333" stroke-width="6.384" stroke-miterlimit="10" stroke-linecap="round" stroke-linejoin="round"/>
<path d="M110.144 39.9912L113.113 37.0188C115.965 34.1719 115.965 29.5603 113.113 26.7133C110.269 23.8664 105.635 23.8664 102.791 26.7133L99.8135 29.6857L110.144 39.9912Z" stroke="#333333" stroke-width="6.384" stroke-miterlimit="10" stroke-linecap="round" stroke-linejoin="round"/>
<path d="M16.3151 113.039L26.6454 123.352L9.11914 130.536L16.3151 113.039Z" stroke="#333333" stroke-width="6.384" stroke-miterlimit="10" stroke-linecap="round" stroke-linejoin="round"/>
<path d="M12.67 121.902L9.11914 130.537L17.7684 126.992L12.67 121.902Z" stroke="#333333" stroke-width="6.384" stroke-miterlimit="10" stroke-linecap="round" stroke-linejoin="round"/>
<path d="M99.5002 40.3047L21.4844 118.2" stroke="#333333" stroke-width="6.384" stroke-miterlimit="10" stroke-linecap="round" stroke-linejoin="round"/>
</g>
<defs>
<clipPath id="clip0_288037_18121">
<rect width="234" height="172" fill="white"/>
</clipPath>
</defs>
</svg>
