<svg width="227" height="149" viewBox="0 0 227 149" fill="none" xmlns="http://www.w3.org/2000/svg">
<g clip-path="url(#clip0_288037_18122)">
<path d="M124.918 51.6726L120.896 3H113.378H105.86L101.838 51.6726H124.918Z" fill="#B2B3B4" stroke="#333333" stroke-width="6" stroke-miterlimit="10"/>
<path d="M213.579 131.45C213.579 99.1848 200.028 66.4175 173.585 44.9124C167.041 39.5872 159.806 35.1795 152.131 31.7521L149.931 17.5801C139.766 12.8901 130.158 10.5294 121.454 9.61183L124.918 51.673H101.838L105.318 9.47852C87.8784 11.0392 76.8253 17.5801 76.8253 17.5801L74.2879 31.76C47.8375 43.885 28.6301 67.3586 19.5881 93.2635C15.2831 105.577 13.1699 118.517 13.1699 131.45H213.579" stroke="#333333" stroke-width="6" stroke-miterlimit="10"/>
<path d="M149.931 17.5801L157.59 66.9821" stroke="#333333" stroke-width="6" stroke-miterlimit="10"/>
<path d="M67.9873 66.9821L76.8251 17.5801" stroke="#333333" stroke-width="6" stroke-miterlimit="10"/>
<path d="M36.5647 85.3965C36.5647 85.3965 26.415 103.184 27.2006 116.776H89.8662" stroke="#333333" stroke-width="6" stroke-miterlimit="10"/>
<path d="M214.702 131.449H113.378H12.1959C12.1959 131.449 3.06752 131.794 3.15393 145.809H113.386H223.611C223.689 131.794 214.702 131.449 214.702 131.449Z" stroke="#333333" stroke-width="6" stroke-miterlimit="10"/>
</g>
<defs>
<clipPath id="clip0_288037_18122">
<rect width="227" height="149" fill="white"/>
</clipPath>
</defs>
</svg>
