<svg width="192" height="166" viewBox="0 0 192 166" fill="none" xmlns="http://www.w3.org/2000/svg">
<path d="M87.5848 147.622C90.7506 168.939 41.1963 169.59 37.0014 137.356C16.6156 143.058 2.53799 123.411 12.397 106.047C0.57404 97.9928 0.794029 74.4957 13.1119 67.4529C3.70067 57.4376 15.1151 29.3994 37.8812 34.4031C31.6673 11.8864 64.583 -6.46586 87.7182 11.4785L87.5848 147.622Z" stroke="#333333" stroke-width="6" stroke-miterlimit="10"/>
<path d="M37.1904 29.3984C38.8873 39.3902 47.6936 47.1311 57.749 48.9271" stroke="#333333" stroke-width="6" stroke-miterlimit="10"/>
<path d="M57.7482 21.8867C55.4229 36.8195 80.5222 43.0859 87.341 33.4" stroke="#333333" stroke-width="6" stroke-miterlimit="10"/>
<path d="M45.2112 43.9238C45.1719 49.1628 38.1488 55.8763 34.1816 57.437" stroke="#333333" stroke-width="6" stroke-miterlimit="10"/>
<path d="M29.6631 74.4565C35.8456 77.578 35.987 86.558 42.6802 88.5501C49.6954 90.6363 53.5133 82.8954 56.3335 77.5309C60.6228 69.3351 67.0096 66.0176 76.2951 67.4764C79.3274 67.9548 84.5829 70.0723 86.3347 70.9586" stroke="#333333" stroke-width="6" stroke-miterlimit="10"/>
<path d="M22.6406 73.9626C27.4484 79.9153 35.1549 71.1235 30.1664 65.9551" stroke="#333333" stroke-width="6" stroke-miterlimit="10"/>
<path d="M87.8357 105.005C81.2525 98.4485 70.9929 105.844 68.7854 112.942C66.1773 121.302 74.1038 128.11 71.315 136.251C69.626 141.192 65.7374 143.372 60.7568 142.549" stroke="#333333" stroke-width="6" stroke-miterlimit="10"/>
<path d="M37.1895 141.543C29.4594 121.348 67.7799 127.034 51.2278 96.4863" stroke="#333333" stroke-width="6" stroke-miterlimit="10"/>
<path d="M12.1064 107.005C14.856 102.519 21.4077 102.189 26.184 102.48C30.5047 102.746 35.3596 105.993 37.1821 106.503" stroke="#333333" stroke-width="6" stroke-miterlimit="10"/>
<path d="M187.378 96.5023L188.101 74.4717L174.722 74.0325C173.913 69.4601 172.649 65.0447 170.967 60.8331L183.238 54.1196L172.617 34.7948L159.569 41.9396C156.756 38.6457 153.638 35.6183 150.252 32.9047L158.045 19.7523L139.042 8.52134L131.005 22.0816C127.109 20.6699 123.031 19.6033 118.836 18.9131V3H107.925V162.735H118.836V152.869C122.992 152.194 127.022 151.143 130.887 149.747L135.593 158.57L155.083 148.234L150.157 138.971C153.795 136.062 157.141 132.807 160.119 129.23L169.326 135.089L181.196 116.494L171.282 110.188C173.01 105.71 174.283 100.988 175.021 96.1023L187.378 96.5023Z" stroke="#333333" stroke-width="6" stroke-miterlimit="10"/>
<path d="M107.916 34.6855V49.885C126.11 49.9556 140.84 64.6922 140.84 82.8719C140.84 101.052 126.118 115.796 107.916 115.859V131.05C134.508 130.98 156.056 109.436 156.056 82.8719C156.048 56.2926 134.508 34.7561 107.916 34.6855Z" fill="#B2B3B4" stroke="#333333" stroke-width="6" stroke-miterlimit="10"/>
</svg>
