<svg width="150" height="41" viewBox="0 0 150 41" fill="none" xmlns="http://www.w3.org/2000/svg">
<g opacity="0.85" clip-path="url(#clip0_286837_4542)">
<path d="M40.4561 17.5168C40.3396 17.6361 40.1701 17.8076 40.0489 17.9316C39.2277 17.9073 38.9465 17.1135 38.264 17.0579C37.8228 17.146 37.5346 17.4032 37.5193 17.8621C37.5028 18.3441 37.5251 18.8296 37.5569 19.3117C37.7946 22.942 37.7169 26.577 37.7052 30.2108C37.7028 30.9292 37.5828 31.6488 37.5298 32.2236C37.0933 33.0219 36.5227 33.4727 35.9179 33.9489C33.6271 34.2444 31.3339 33.8713 29.0772 33.9675C28.4724 33.7612 28.0782 33.3522 27.7829 32.8609C27.6664 32.6685 27.6064 32.3858 27.6511 32.1714C27.7005 31.9362 27.9629 31.8609 28.223 31.8562C30.1867 31.8261 32.141 31.5538 34.1095 31.6083C34.2695 31.6129 34.4307 31.548 34.6425 31.5051C34.7637 31.3533 35.0002 31.1876 35.039 30.986C35.1284 30.5144 35.1472 30.0266 35.1508 29.5445C35.1649 27.526 35.2084 25.5052 35.1519 23.4878C35.1061 21.869 35.3873 20.2792 35.4532 18.672C35.472 18.2027 35.6461 17.7242 35.8273 17.2804C36.0085 16.8354 36.2874 16.4287 36.5156 16.022C36.5862 15.5562 36.358 15.2248 36.0473 14.949C35.0813 14.0904 34.2789 13.0533 33.0705 12.4554C32.6517 12.2479 32.3528 11.8018 32.0022 11.4623C29.9537 9.48086 27.9076 7.49709 25.8556 5.51911C25.6274 5.29895 25.365 5.11355 25.1003 4.89802C24.8414 4.99883 24.5708 5.03128 24.4084 5.17844C23.6883 5.83776 23.0094 6.54112 22.2952 7.2074C21.4104 8.03243 20.6374 8.96522 19.5397 9.58167C18.9161 9.93161 18.4431 10.5458 17.9195 11.0579C16.9311 12.0208 15.9075 12.9501 15.0486 13.8702C14.7674 14.6408 15.0392 15.2746 15.0427 15.9119C15.0451 16.4762 15.0462 17.0498 15.1439 17.6025C15.3863 18.9629 15.3616 20.3082 15.1662 21.6743C15.0298 22.6291 15.038 23.606 15.0286 24.5747C15.0086 26.5932 15.0227 28.6117 15.0156 30.6303C15.0145 30.9675 15.1074 31.2549 15.3604 31.4727C16.8217 31.6755 18.2783 31.8725 19.7326 32.081C20.4951 32.1911 21.194 32.0694 21.8246 31.6152C21.8799 31.5747 21.9846 31.6013 22.0658 31.5967C22.507 31.84 22.5612 32.2386 22.3788 32.6245C22.014 33.3904 21.4434 33.9524 20.528 34.0243C19.9562 34.0694 19.382 34.081 18.809 34.0949C18.2348 34.1088 17.6606 34.1088 17.0853 34.11C16.6193 34.1112 16.2499 34.4785 15.6875 34.2653C14.8639 33.9524 13.8885 34.066 12.8625 33.1158C12.4224 32.5944 12.1836 31.5955 12.3259 30.5121C12.4942 29.2352 12.3836 27.935 12.706 26.6685C12.8025 26.2885 12.8107 25.8447 12.713 25.4658C12.4248 24.351 12.5342 23.2236 12.5165 22.1008C12.4942 20.6477 12.5001 19.1935 12.4836 17.7392C12.4812 17.5005 12.4271 17.263 12.3906 17.0255C12.3636 16.847 11.7753 16.4982 11.5941 16.5666C11.0623 16.7671 10.5493 17.0289 9.9692 17.0683C9.64093 17.0903 9.31149 17.0753 9.04204 16.8146C8.87026 16.117 9.25383 15.5237 9.66799 15.0706C10.7093 13.9328 11.787 12.8065 12.986 11.8377C13.7449 11.2248 14.4897 10.5991 15.2121 9.94784C16.3581 8.91308 17.5347 7.91308 18.7054 6.90613C20.4927 5.36963 22.3929 3.9548 24.0554 2.2781C24.166 2.16686 24.3319 2.10892 24.5167 2C24.7979 2 25.1238 2 25.5109 2C25.7321 2.17265 25.9933 2.36385 26.2404 2.57126C27.0475 3.25029 27.73 4.073 28.6889 4.57821C28.8983 4.68829 29.0595 4.89339 29.2337 5.06372C32.1975 7.97102 35.1484 10.8934 38.1323 13.7798C38.7888 14.4148 39.1559 15.2306 39.7336 15.9096C40.0925 16.3348 40.3925 16.8192 40.4561 17.5168Z" fill="#333333"/>
<path d="M30.5897 14.9198C31.2756 15.1075 31.5815 15.5316 31.6109 16.1643C31.6745 17.5339 31.6192 18.9221 31.8274 20.2709C32.1369 22.2766 31.9592 24.2917 32.1287 26.294C32.1981 27.119 31.8145 27.6799 30.9826 28.0947C30.3532 28.0947 29.6178 28.0518 28.8895 28.1074C28.2129 28.1596 27.6035 27.9232 26.9622 27.8236C25.5821 27.6103 24.1701 27.7216 22.7982 27.5652C21.424 27.4076 20.0744 27.0553 18.679 27.1677C17.8589 26.8896 17.7106 26.1283 17.4023 25.4968C17.5259 24.1248 17.673 22.7668 17.7636 21.4041C17.8447 20.1979 17.8624 18.987 17.9142 17.7784C17.9248 17.5408 17.94 17.301 17.9871 17.0681C18.1801 16.1191 18.686 15.4447 19.7049 15.2465C20.5074 15.0901 21.3098 14.9348 22.1134 14.7819C23.3983 14.5362 24.6808 14.2732 25.9703 14.0577C26.5316 13.9638 27.1116 13.9221 27.6776 13.9499C27.9776 13.9638 28.2859 14.1469 28.5577 14.3079C28.7542 14.425 28.7506 14.7622 28.6377 15.4771C28.4283 15.5165 28.187 15.6289 27.9741 15.5907C27.0752 15.4308 26.1421 15.3334 25.2914 15.5791C24.2537 15.878 23.2242 15.9881 22.1605 16.031C21.4157 16.0611 20.7251 16.3137 20.1509 16.7865C20.0815 16.951 19.9838 17.0947 19.9638 17.2488C19.6555 19.6625 19.7402 22.0785 19.9367 24.4945C19.9791 25.009 20.2532 25.3983 20.8627 25.7285C21.0298 25.7471 21.3498 25.8073 21.6699 25.8154C22.4052 25.834 23.1277 25.8827 23.863 25.9904C25.1538 26.1793 26.4704 26.2303 27.7776 26.2558C29.1577 26.2824 30.1449 25.0171 29.9155 23.6115C29.8778 23.3809 29.7143 23.119 29.7813 22.9313C30.1426 21.9105 30.0214 20.8583 30.0555 19.8166C30.1026 18.3659 30.1296 16.9151 30.2049 15.4655C30.2155 15.2697 30.4626 15.0901 30.5897 14.9198Z" fill="#333333"/>
<path d="M46.868 20.4C48.08 20.4 49.1 20.808 49.928 21.624C50.756 22.44 51.17 23.442 51.17 24.63C51.17 25.818 50.756 26.82 49.928 27.636C49.1 28.452 48.08 28.86 46.868 28.86H44.654V33H42.17V20.4H46.868ZM46.868 26.538C47.396 26.538 47.834 26.358 48.182 25.998C48.53 25.626 48.704 25.17 48.704 24.63C48.704 24.078 48.53 23.622 48.182 23.262C47.834 22.902 47.396 22.722 46.868 22.722H44.654V26.538H46.868ZM54.8078 25.548C55.0238 24.972 55.3778 24.54 55.8698 24.252C56.3738 23.964 56.9318 23.82 57.5438 23.82V26.412C56.8358 26.328 56.1998 26.472 55.6358 26.844C55.0838 27.216 54.8078 27.834 54.8078 28.698V33H52.4858V24H54.8078V25.548ZM66.2359 31.884C65.3119 32.796 64.1839 33.252 62.8519 33.252C61.5199 33.252 60.3919 32.796 59.4679 31.884C58.5559 30.96 58.0999 29.832 58.0999 28.5C58.0999 27.168 58.5559 26.046 59.4679 25.134C60.3919 24.21 61.5199 23.748 62.8519 23.748C64.1839 23.748 65.3119 24.21 66.2359 25.134C67.1599 26.046 67.6219 27.168 67.6219 28.5C67.6219 29.832 67.1599 30.96 66.2359 31.884ZM61.1059 30.282C61.5739 30.75 62.1559 30.984 62.8519 30.984C63.5479 30.984 64.1299 30.75 64.5979 30.282C65.0659 29.814 65.2999 29.22 65.2999 28.5C65.2999 27.78 65.0659 27.186 64.5979 26.718C64.1299 26.25 63.5479 26.016 62.8519 26.016C62.1559 26.016 61.5739 26.25 61.1059 26.718C60.6499 27.186 60.4219 27.78 60.4219 28.5C60.4219 29.22 60.6499 29.814 61.1059 30.282ZM73.8161 22.38C72.5441 22.284 71.9081 22.794 71.9081 23.91V24H73.8161V26.232H71.9081V33H69.5861V26.232H68.2901V24H69.5861V23.91C69.5861 22.638 69.9401 21.672 70.6481 21.012C71.3561 20.352 72.4121 20.064 73.8161 20.148V22.38ZM74.795 28.68V26.448H81.545V28.68H74.795ZM93.7289 23.748C94.7609 23.748 95.5829 24.084 96.1949 24.756C96.8189 25.428 97.1309 26.328 97.1309 27.456V33H94.8089V27.618C94.8089 27.078 94.6769 26.658 94.4129 26.358C94.1489 26.058 93.7769 25.908 93.2969 25.908C92.7689 25.908 92.3549 26.082 92.0549 26.43C91.7669 26.778 91.6229 27.282 91.6229 27.942V33H89.3009V27.618C89.3009 27.078 89.1689 26.658 88.9049 26.358C88.6409 26.058 88.2689 25.908 87.7889 25.908C87.2729 25.908 86.8589 26.082 86.5469 26.43C86.2469 26.778 86.0969 27.282 86.0969 27.942V33H83.7749V24H86.0969V24.954C86.6369 24.15 87.4709 23.748 88.5989 23.748C89.7029 23.748 90.5189 24.18 91.0469 25.044C91.6469 24.18 92.5409 23.748 93.7289 23.748ZM105.943 24H108.265V33H105.943V31.938C105.247 32.814 104.269 33.252 103.009 33.252C101.809 33.252 100.777 32.796 99.913 31.884C99.061 30.96 98.635 29.832 98.635 28.5C98.635 27.168 99.061 26.046 99.913 25.134C100.777 24.21 101.809 23.748 103.009 23.748C104.269 23.748 105.247 24.186 105.943 25.062V24ZM101.659 30.336C102.127 30.804 102.721 31.038 103.441 31.038C104.161 31.038 104.755 30.804 105.223 30.336C105.703 29.856 105.943 29.244 105.943 28.5C105.943 27.756 105.703 27.15 105.223 26.682C104.755 26.202 104.161 25.962 103.441 25.962C102.721 25.962 102.127 26.202 101.659 26.682C101.191 27.15 100.957 27.756 100.957 28.5C100.957 29.244 101.191 29.856 101.659 30.336ZM112.442 26.556C112.442 26.796 112.598 26.994 112.91 27.15C113.234 27.294 113.624 27.426 114.08 27.546C114.536 27.654 114.992 27.798 115.448 27.978C115.904 28.146 116.288 28.434 116.6 28.842C116.924 29.25 117.086 29.76 117.086 30.372C117.086 31.296 116.738 32.01 116.042 32.514C115.358 33.006 114.5 33.252 113.468 33.252C111.62 33.252 110.36 32.538 109.688 31.11L111.704 29.976C111.968 30.756 112.556 31.146 113.468 31.146C114.296 31.146 114.71 30.888 114.71 30.372C114.71 30.132 114.548 29.94 114.224 29.796C113.912 29.64 113.528 29.502 113.072 29.382C112.616 29.262 112.16 29.112 111.704 28.932C111.248 28.752 110.858 28.47 110.534 28.086C110.222 27.69 110.066 27.198 110.066 26.61C110.066 25.722 110.39 25.026 111.038 24.522C111.698 24.006 112.514 23.748 113.486 23.748C114.218 23.748 114.884 23.916 115.484 24.252C116.084 24.576 116.558 25.044 116.906 25.656L114.926 26.736C114.638 26.124 114.158 25.818 113.486 25.818C113.186 25.818 112.934 25.884 112.73 26.016C112.538 26.148 112.442 26.328 112.442 26.556ZM123.464 26.232H121.43V29.976C121.43 30.288 121.508 30.516 121.664 30.66C121.82 30.804 122.048 30.888 122.348 30.912C122.648 30.924 123.02 30.918 123.464 30.894V33C121.868 33.18 120.74 33.03 120.08 32.55C119.432 32.07 119.108 31.212 119.108 29.976V26.232H117.542V24H119.108V22.182L121.43 21.48V24H123.464V26.232ZM126.782 29.454C127.094 30.582 127.94 31.146 129.32 31.146C130.208 31.146 130.88 30.846 131.336 30.246L133.208 31.326C132.32 32.61 131.012 33.252 129.284 33.252C127.796 33.252 126.602 32.802 125.702 31.902C124.802 31.002 124.352 29.868 124.352 28.5C124.352 27.144 124.796 26.016 125.684 25.116C126.572 24.204 127.712 23.748 129.104 23.748C130.424 23.748 131.51 24.204 132.362 25.116C133.226 26.028 133.658 27.156 133.658 28.5C133.658 28.8 133.628 29.118 133.568 29.454H126.782ZM126.746 27.654H131.336C131.204 27.042 130.928 26.586 130.508 26.286C130.1 25.986 129.632 25.836 129.104 25.836C128.48 25.836 127.964 25.998 127.556 26.322C127.148 26.634 126.878 27.078 126.746 27.654ZM137.601 25.548C137.817 24.972 138.171 24.54 138.663 24.252C139.167 23.964 139.725 23.82 140.337 23.82V26.412C139.629 26.328 138.993 26.472 138.429 26.844C137.877 27.216 137.601 27.834 137.601 28.698V33H135.279V24H137.601V25.548ZM143.556 26.556C143.556 26.796 143.712 26.994 144.024 27.15C144.348 27.294 144.738 27.426 145.194 27.546C145.65 27.654 146.106 27.798 146.562 27.978C147.018 28.146 147.402 28.434 147.714 28.842C148.038 29.25 148.2 29.76 148.2 30.372C148.2 31.296 147.852 32.01 147.156 32.514C146.472 33.006 145.614 33.252 144.582 33.252C142.734 33.252 141.474 32.538 140.802 31.11L142.818 29.976C143.082 30.756 143.67 31.146 144.582 31.146C145.41 31.146 145.824 30.888 145.824 30.372C145.824 30.132 145.662 29.94 145.338 29.796C145.026 29.64 144.642 29.502 144.186 29.382C143.73 29.262 143.274 29.112 142.818 28.932C142.362 28.752 141.972 28.47 141.648 28.086C141.336 27.69 141.18 27.198 141.18 26.61C141.18 25.722 141.504 25.026 142.152 24.522C142.812 24.006 143.628 23.748 144.6 23.748C145.332 23.748 145.998 23.916 146.598 24.252C147.198 24.576 147.672 25.044 148.02 25.656L146.04 26.736C145.752 26.124 145.272 25.818 144.6 25.818C144.3 25.818 144.048 25.884 143.844 26.016C143.652 26.148 143.556 26.328 143.556 26.556Z" fill="#333333"/>
</g>
<defs>
<clipPath id="clip0_286837_4542">
<rect width="150" height="41" fill="white"/>
</clipPath>
</defs>
</svg>
