<?xml version="1.0" encoding="utf-8"?><svg viewBox="0 0 41 41" xmlns="http://www.w3.org/2000/svg" xmlns:xlink="http://www.w3.org/1999/xlink"><style>:root>svg{display:none}:root>svg:target{display:block}</style><svg fill="none" viewBox="0 0 41 40" id="inst" xmlns="http://www.w3.org/2000/svg"><g clip-path="url(#aa)"><path d="M.382 19.2c0-9.051 0-13.581 2.813-16.389C6.008.004 10.538 0 19.595 0h1.601c9.058 0 13.591 0 16.4 2.811 2.81 2.811 2.814 7.338 2.814 16.389v1.6c0 9.051 0 13.581-2.814 16.389C34.783 39.996 30.254 40 21.196 40h-1.6c-9.058 0-13.592 0-16.401-2.811C.385 34.378.382 29.85.382 20.8v-1.6Z" fill="#38454C"/><path fill-rule="evenodd" clip-rule="evenodd" d="M20.396 8.847c3.03 0 3.41.013 4.602.067a8.196 8.196 0 0 1 2.709.519 5.697 5.697 0 0 1 3.263 3.261c.325.867.501 1.782.52 2.707.054 1.19.067 1.57.067 4.6 0 3.028-.013 3.407-.067 4.598a8.179 8.179 0 0 1-.52 2.707 5.692 5.692 0 0 1-3.263 3.262c-.867.324-1.783.5-2.71.519-1.19.054-1.57.067-4.601.067-3.031 0-3.411-.013-4.603-.067a8.197 8.197 0 0 1-2.708-.52 5.697 5.697 0 0 1-3.264-3.26 8.181 8.181 0 0 1-.52-2.708c-.054-1.19-.067-1.57-.067-4.599s.013-3.408.067-4.599c.02-.925.195-1.84.52-2.707a5.694 5.694 0 0 1 3.264-3.261 8.196 8.196 0 0 1 2.708-.52c1.192-.053 1.572-.066 4.603-.066Zm4.509 2.074c-1.177-.054-1.529-.065-4.51-.065-2.98 0-3.332.011-4.509.065a6.158 6.158 0 0 0-2.074.385 3.69 3.69 0 0 0-2.116 2.116 6.15 6.15 0 0 0-.386 2.072c-.054 1.176-.065 1.528-.065 4.506 0 2.979.011 3.33.065 4.506a6.15 6.15 0 0 0 .386 2.073 3.687 3.687 0 0 0 2.116 2.115 6.158 6.158 0 0 0 2.074.385c1.177.054 1.529.065 4.51.065 2.98 0 3.332-.01 4.509-.065a6.157 6.157 0 0 0 2.074-.385 3.69 3.69 0 0 0 2.117-2.115 6.147 6.147 0 0 0 .385-2.073c.054-1.176.065-1.527.065-4.506 0-2.978-.011-3.33-.065-4.506a6.147 6.147 0 0 0-.385-2.072 3.688 3.688 0 0 0-2.117-2.116 6.157 6.157 0 0 0-2.074-.385Zm-4.51 12.796a3.726 3.726 0 0 0 3.44-2.297 3.719 3.719 0 0 0-2.713-5.073 3.725 3.725 0 0 0-4.45 3.65 3.72 3.72 0 0 0 3.724 3.72Zm0-9.445a5.736 5.736 0 0 1 5.297 3.536 5.724 5.724 0 0 1-1.243 6.243A5.734 5.734 0 0 1 14.663 20a5.725 5.725 0 0 1 1.68-4.051 5.734 5.734 0 0 1 4.053-1.678Zm7.299-.225a1.34 1.34 0 1 1-2.68 0 1.34 1.34 0 0 1 2.68 0Z" fill="#fff"/></g><defs><clipPath id="aa"><path fill="#fff" transform="translate(.382)" d="M0 0h40.028v40H0z"/></clipPath></defs></svg><svg fill="none" viewBox="0 0 41 41" id="wtsp" xmlns="http://www.w3.org/2000/svg"><g clip-path="url(#ba)"><path d="M.229 19.604c0-9.05 0-13.581 2.826-16.389C5.882.408 10.434.405 19.535.405h1.61c9.1 0 13.656 0 16.48 2.81 2.822 2.812 2.826 7.338 2.826 16.39v1.6c0 9.05 0 13.58-2.827 16.388-2.827 2.808-7.378 2.811-16.48 2.811h-1.609c-9.101 0-13.657 0-16.48-2.81C.232 34.781.23 30.255.23 21.203v-1.6Z" fill="#38454C"/><path d="m9.502 31.357 1.553-5.642a10.835 10.835 0 0 1 1.75-13.136 10.997 10.997 0 0 1 13.212-1.723 10.905 10.905 0 0 1 4.636 5.262 10.829 10.829 0 0 1 .459 6.982 10.883 10.883 0 0 1-3.91 5.818 10.986 10.986 0 0 1-11.891.924l-5.809 1.515Zm6.067-3.485.333.195a9.128 9.128 0 0 0 10.2-.634 9.042 9.042 0 0 0 3.236-4.89 9 9 0 0 0-.453-5.837 9.064 9.064 0 0 0-3.952-4.338 9.14 9.14 0 0 0-5.796-1.024 9.113 9.113 0 0 0-5.212 2.72 9.006 9.006 0 0 0-1.1 11.024l.216.343-.918 3.34 3.446-.9Z" fill="#fff"/><path fill-rule="evenodd" clip-rule="evenodd" d="M26.045 22.87c-.067-.113-.25-.185-.524-.317-.273-.132-1.618-.795-1.87-.884-.253-.09-.433-.138-.616.136-.183.273-.705.884-.866 1.066-.161.182-.318.204-.591.069a7.544 7.544 0 0 1-2.2-1.351 8.203 8.203 0 0 1-1.521-1.885c-.16-.271-.017-.418.12-.558.136-.14.272-.318.409-.476a1.86 1.86 0 0 0 .273-.454.493.493 0 0 0-.022-.476c-.068-.136-.616-1.476-.842-2.02-.227-.546-.45-.459-.616-.468-.166-.01-.342 0-.525 0a1.012 1.012 0 0 0-.711.335 3.052 3.052 0 0 0-.958 2.27c0 1.338.98 2.63 1.122 2.813.143.182 1.93 2.928 4.677 4.106.51.219 1.03.41 1.56.573.558.17 1.147.207 1.722.108.526-.078 1.618-.657 1.846-1.303.229-.645.21-1.17.133-1.283Z" fill="#fff"/></g><defs><clipPath id="ba"><path fill="#fff" transform="translate(.229 .404)" d="M0 0h40.223v40H0z"/></clipPath></defs></svg></svg>