<svg width="40" height="41" viewBox="0 0 40 41" fill="none" xmlns="http://www.w3.org/2000/svg">
<path d="M39.4685 19.4692C39.3224 19.6189 39.1098 19.8341 38.9577 19.9897C37.9273 19.9591 37.5744 18.9632 36.7182 18.8934C36.1646 19.0039 35.8029 19.3267 35.7837 19.9024C35.763 20.5073 35.7911 21.1165 35.8309 21.7213C36.1291 26.2763 36.0317 30.8372 36.0169 35.3967C36.014 36.2981 35.8634 37.201 35.797 37.9221C35.2492 38.9238 34.5332 39.4894 33.7744 40.087C30.9001 40.4577 28.0228 39.9895 25.1912 40.1102C24.4324 39.8514 23.9378 39.3382 23.5673 38.7217C23.4211 38.4804 23.3458 38.1256 23.4019 37.8567C23.4639 37.5615 23.7932 37.467 24.1194 37.4612C26.5834 37.4234 29.0355 37.0817 31.5054 37.1501C31.7061 37.1559 31.9084 37.0745 32.1741 37.0207C32.3262 36.8302 32.6229 36.6223 32.6716 36.3693C32.7838 35.7776 32.8074 35.1655 32.8119 34.5607C32.8296 32.028 32.8842 29.4924 32.8134 26.9611C32.7558 24.93 33.1086 22.9353 33.1913 20.9187C33.2149 20.3299 33.4334 19.7294 33.6608 19.1726C33.8881 18.6143 34.238 18.104 34.5244 17.5937C34.613 17.0092 34.3266 16.5934 33.9368 16.2473C32.7248 15.17 31.7179 13.8688 30.2018 13.1185C29.6762 12.8583 29.3012 12.2985 28.8613 11.8726C26.2911 9.38638 23.7238 6.8973 21.1491 4.4155C20.8627 4.13926 20.5335 3.90663 20.2013 3.63621C19.8765 3.7627 19.537 3.8034 19.3333 3.98805C18.4298 4.81532 17.5779 5.69784 16.6818 6.53383C15.5716 7.56901 14.6017 8.7394 13.2243 9.51287C12.4419 9.95195 11.8484 10.7225 11.1914 11.3651C9.95135 12.5733 8.66697 13.7394 7.58927 14.8938C7.23643 15.8606 7.57746 16.6559 7.58189 17.4555C7.58484 18.1636 7.58632 18.8833 7.70885 19.5768C8.01297 21.2837 7.98197 22.9716 7.7369 24.6858C7.56565 25.8838 7.57599 27.1094 7.56418 28.3249C7.53908 30.8576 7.55679 33.3903 7.54793 35.923C7.54646 36.3461 7.66308 36.7066 7.98049 36.98C9.81406 37.2344 11.6417 37.4816 13.4664 37.7433C14.4231 37.8814 15.3 37.7287 16.0913 37.1588C16.1607 37.1079 16.2921 37.1413 16.3939 37.1355C16.9475 37.4409 17.0155 37.941 16.7866 38.4251C16.329 39.3862 15.613 40.0913 14.4644 40.1815C13.7469 40.2382 13.0265 40.2527 12.3075 40.2701C11.5871 40.2876 10.8667 40.2876 10.1447 40.289C9.56013 40.2905 9.09657 40.7514 8.3909 40.4839C7.35749 40.0913 6.13364 40.2338 4.8463 39.0416C4.29417 38.3873 3.99448 37.1341 4.17311 35.7747C4.38422 34.1725 4.24545 32.5412 4.64995 30.9521C4.77101 30.4752 4.78134 29.9184 4.65881 29.4429C4.29712 28.0443 4.43442 26.6296 4.41227 25.2208C4.38422 23.3976 4.3916 21.573 4.37094 19.7483C4.36798 19.4488 4.30007 19.1508 4.25431 18.8527C4.22035 18.6288 3.4822 18.1912 3.25485 18.277C2.58756 18.5285 1.9439 18.8571 1.21608 18.9065C0.804192 18.9342 0.390827 18.9153 0.0527538 18.5881C-0.162786 17.7129 0.318485 16.9685 0.838143 16.4C2.14467 14.9723 3.49696 13.5591 5.00131 12.3436C5.95353 11.5745 6.88803 10.7894 7.79448 9.97231C9.2324 8.67397 10.7087 7.41926 12.1776 6.15582C14.4201 4.22794 16.8043 2.45273 18.8904 0.348935C19.0291 0.209361 19.2373 0.136667 19.4691 0C19.8219 0 20.2308 0 20.7165 0C20.9941 0.216631 21.3218 0.456524 21.6319 0.716772C22.6446 1.56876 23.5008 2.60103 24.704 3.23493C24.9668 3.37305 25.1691 3.63039 25.3876 3.84411C29.1064 7.49195 32.8089 11.1587 36.5528 14.7804C37.3766 15.5771 37.8372 16.6006 38.5621 17.4526C39.0123 17.9862 39.3888 18.5939 39.4685 19.4692Z" fill="#333333"/>
<path d="M27.0894 16.21C27.95 16.4455 28.3339 16.9776 28.3708 17.7715C28.4505 19.49 28.3811 21.2318 28.6424 22.9241C29.0307 25.4408 28.8078 27.9691 29.0204 30.4815C29.1075 31.5167 28.6262 32.2203 27.5824 32.7408C26.7926 32.7408 25.8699 32.687 24.9561 32.7568C24.1072 32.8223 23.3425 32.5257 22.5379 32.4006C20.8062 32.1331 19.0347 32.2727 17.3133 32.0764C15.589 31.8787 13.8957 31.4367 12.1448 31.5777C11.1158 31.2288 10.9298 30.2736 10.543 29.4812C10.698 27.7598 10.8825 26.0558 10.9962 24.346C11.0981 22.8325 11.1202 21.3132 11.1852 19.7968C11.1984 19.4987 11.2176 19.1978 11.2767 18.9055C11.5188 17.7148 12.1536 16.8686 13.4321 16.62C14.4389 16.4237 15.4458 16.2289 16.4541 16.037C18.0662 15.7287 19.6754 15.3987 21.2934 15.1283C21.9976 15.0105 22.7254 14.9582 23.4355 14.9931C23.812 15.0105 24.1988 15.2402 24.5398 15.4423C24.7863 15.5892 24.7819 16.0123 24.6402 16.9093C24.3774 16.9587 24.0747 17.0998 23.8075 17.0518C22.6796 16.8512 21.5089 16.729 20.4416 17.0373C19.1395 17.4124 17.8477 17.5505 16.5131 17.6043C15.5786 17.6421 14.712 17.959 13.9916 18.5522C13.9045 18.7587 13.782 18.939 13.7569 19.1323C13.3701 22.1608 13.4764 25.1922 13.7229 28.2236C13.7761 28.8691 14.12 29.3576 14.8848 29.772C15.0944 29.7952 15.496 29.8708 15.8975 29.881C16.8202 29.9043 17.7267 29.9653 18.6493 30.1006C20.2688 30.3375 21.9208 30.4015 23.561 30.4335C25.2927 30.4669 26.5313 28.8793 26.2434 27.1157C26.1962 26.8264 25.991 26.4978 26.0751 26.2623C26.5284 24.9814 26.3763 23.6612 26.4191 22.3542C26.4782 20.5339 26.5121 18.7136 26.6066 16.8948C26.6199 16.6491 26.9299 16.4237 27.0894 16.21Z" fill="#333333"/>
</svg>
