<svg width="118" height="32" viewBox="0 0 118 32" fill="none" xmlns="http://www.w3.org/2000/svg">
<g opacity="0.85" clip-path="url(#clip0_288028_4)">
<path d="M11.506 13.6V15.536H6.952V29H4.928V15.536H0.396V13.6H11.506ZM22.3309 21.014C23.0349 21.3513 23.5922 21.8353 24.0029 22.466C24.4282 23.0967 24.6409 23.8227 24.6409 24.644C24.6409 25.876 24.2082 26.91 23.3429 27.746C22.4775 28.582 21.4215 29 20.1749 29H13.5309V13.6H19.6909C20.8935 13.6 21.9129 14.0033 22.7489 14.81C23.5849 15.6167 24.0029 16.614 24.0029 17.802C24.0029 19.166 23.4455 20.2367 22.3309 21.014ZM19.6909 15.514H15.5769V20.222H19.6909C20.3362 20.222 20.8789 19.9947 21.3189 19.54C21.7589 19.0853 21.9789 18.528 21.9789 17.868C21.9789 17.2227 21.7515 16.6727 21.2969 16.218C20.8569 15.7487 20.3215 15.514 19.6909 15.514ZM20.1749 27.086C20.8642 27.086 21.4435 26.844 21.9129 26.36C22.3822 25.876 22.6169 25.282 22.6169 24.578C22.6169 23.8887 22.3749 23.302 21.8909 22.818C21.4215 22.334 20.8495 22.092 20.1749 22.092H15.5769V27.086H20.1749ZM39.87 26.954C38.33 28.5087 36.4453 29.286 34.216 29.286C31.9867 29.286 30.102 28.5087 28.562 26.954C27.022 25.3993 26.252 23.5147 26.252 21.3C26.252 19.0707 27.022 17.186 28.562 15.646C30.102 14.0913 31.9867 13.314 34.216 13.314C36.4453 13.314 38.33 14.0913 39.87 15.646C41.4247 17.186 42.202 19.0707 42.202 21.3C42.202 23.5147 41.4247 25.3993 39.87 26.954ZM29.97 25.568C31.114 26.712 32.5293 27.284 34.216 27.284C35.9027 27.284 37.3107 26.712 38.44 25.568C39.584 24.4093 40.156 22.9867 40.156 21.3C40.156 19.5987 39.584 18.176 38.44 17.032C37.3107 15.8733 35.9027 15.294 34.216 15.294C32.5293 15.294 31.114 15.8733 29.97 17.032C28.8407 18.176 28.276 19.5987 28.276 21.3C28.276 22.9867 28.8407 24.4093 29.97 25.568ZM47.4997 11.95V10.278H53.4397V11.95H47.4997ZM54.2317 29V17.516L46.3117 29H44.6617V13.6H46.7077V25.106L54.6277 13.6H56.2777V29H54.2317Z" fill="#333333"/>
<path d="M80.936 27.064H82.586V31.948H80.54V29H70.376V31.948H68.33V27.064H69.672C70.6253 25.876 71.102 24.072 71.102 21.652V13.6H80.936V27.064ZM71.982 27.064H78.89V15.514H73.148V21.696C73.148 24.028 72.7593 25.8173 71.982 27.064ZM97.5145 26.954C95.9745 28.5087 94.0899 29.286 91.8605 29.286C89.6312 29.286 87.7465 28.5087 86.2065 26.954C84.6665 25.3993 83.8965 23.5147 83.8965 21.3C83.8965 19.0707 84.6665 17.186 86.2065 15.646C87.7465 14.0913 89.6312 13.314 91.8605 13.314C94.0899 13.314 95.9745 14.0913 97.5145 15.646C99.0692 17.186 99.8465 19.0707 99.8465 21.3C99.8465 23.5147 99.0692 25.3993 97.5145 26.954ZM87.6145 25.568C88.7585 26.712 90.1739 27.284 91.8605 27.284C93.5472 27.284 94.9552 26.712 96.0845 25.568C97.2285 24.4093 97.8005 22.9867 97.8005 21.3C97.8005 19.5987 97.2285 18.176 96.0845 17.032C94.9552 15.8733 93.5472 15.294 91.8605 15.294C90.1739 15.294 88.7585 15.8733 87.6145 17.032C86.4852 18.176 85.9205 19.5987 85.9205 21.3C85.9205 22.9867 86.4852 24.4093 87.6145 25.568ZM116.716 13.6V29H114.692V16.966L109.654 25.348H109.39L104.352 16.988V29H102.306V13.6H104.616L109.522 21.74L114.406 13.6H116.716Z" fill="#333333"/>
<path d="M62 1.5V14.5L78 3L108 11" stroke="#333333" stroke-width="4"/>
</g>
<defs>
<clipPath id="clip0_288028_4">
<rect width="118" height="32" fill="white"/>
</clipPath>
</defs>
</svg>
