<svg width="117" height="47" viewBox="0 0 117 47" fill="none" xmlns="http://www.w3.org/2000/svg">
<g opacity="0.85" clip-path="url(#clip0_287814_3)">
<path d="M11.506 13.6V15.536H6.952V29H4.928V15.536H0.396V13.6H11.506ZM22.3309 21.014C23.0349 21.3513 23.5922 21.8353 24.0029 22.466C24.4282 23.0967 24.6409 23.8227 24.6409 24.644C24.6409 25.876 24.2082 26.91 23.3429 27.746C22.4775 28.582 21.4215 29 20.1749 29H13.5309V13.6H19.6909C20.8935 13.6 21.9129 14.0033 22.7489 14.81C23.5849 15.6167 24.0029 16.614 24.0029 17.802C24.0029 19.166 23.4455 20.2367 22.3309 21.014ZM19.6909 15.514H15.5769V20.222H19.6909C20.3362 20.222 20.8789 19.9947 21.3189 19.54C21.7589 19.0853 21.9789 18.528 21.9789 17.868C21.9789 17.2227 21.7515 16.6727 21.2969 16.218C20.8569 15.7487 20.3215 15.514 19.6909 15.514ZM20.1749 27.086C20.8642 27.086 21.4435 26.844 21.9129 26.36C22.3822 25.876 22.6169 25.282 22.6169 24.578C22.6169 23.8887 22.3749 23.302 21.8909 22.818C21.4215 22.334 20.8495 22.092 20.1749 22.092H15.5769V27.086H20.1749ZM39.87 26.954C38.33 28.5087 36.4453 29.286 34.216 29.286C31.9867 29.286 30.102 28.5087 28.562 26.954C27.022 25.3993 26.252 23.5147 26.252 21.3C26.252 19.0707 27.022 17.186 28.562 15.646C30.102 14.0913 31.9867 13.314 34.216 13.314C36.4453 13.314 38.33 14.0913 39.87 15.646C41.4247 17.186 42.202 19.0707 42.202 21.3C42.202 23.5147 41.4247 25.3993 39.87 26.954ZM29.97 25.568C31.114 26.712 32.5293 27.284 34.216 27.284C35.9027 27.284 37.3107 26.712 38.44 25.568C39.584 24.4093 40.156 22.9867 40.156 21.3C40.156 19.5987 39.584 18.176 38.44 17.032C37.3107 15.8733 35.9027 15.294 34.216 15.294C32.5293 15.294 31.114 15.8733 29.97 17.032C28.8407 18.176 28.276 19.5987 28.276 21.3C28.276 22.9867 28.8407 24.4093 29.97 25.568ZM47.4997 11.95V10.278H53.4397V11.95H47.4997ZM54.2317 29V17.516L46.3117 29H44.6617V13.6H46.7077V25.106L54.6277 13.6H56.2777V29H54.2317Z" fill="#333333"/>
<path d="M80.936 27.064H82.586V31.948H80.54V29H70.376V31.948H68.33V27.064H69.672C70.6253 25.876 71.102 24.072 71.102 21.652V13.6H80.936V27.064ZM71.982 27.064H78.89V15.514H73.148V21.696C73.148 24.028 72.7593 25.8173 71.982 27.064ZM97.5145 26.954C95.9745 28.5087 94.0899 29.286 91.8605 29.286C89.6312 29.286 87.7465 28.5087 86.2065 26.954C84.6665 25.3993 83.8965 23.5147 83.8965 21.3C83.8965 19.0707 84.6665 17.186 86.2065 15.646C87.7465 14.0913 89.6312 13.314 91.8605 13.314C94.0899 13.314 95.9745 14.0913 97.5145 15.646C99.0692 17.186 99.8465 19.0707 99.8465 21.3C99.8465 23.5147 99.0692 25.3993 97.5145 26.954ZM87.6145 25.568C88.7585 26.712 90.1739 27.284 91.8605 27.284C93.5472 27.284 94.9552 26.712 96.0845 25.568C97.2285 24.4093 97.8005 22.9867 97.8005 21.3C97.8005 19.5987 97.2285 18.176 96.0845 17.032C94.9552 15.8733 93.5472 15.294 91.8605 15.294C90.1739 15.294 88.7585 15.8733 87.6145 17.032C86.4852 18.176 85.9205 19.5987 85.9205 21.3C85.9205 22.9867 86.4852 24.4093 87.6145 25.568ZM116.716 13.6V29H114.692V16.966L109.654 25.348H109.39L104.352 16.988V29H102.306V13.6H104.616L109.522 21.74L114.406 13.6H116.716Z" fill="#333333"/>
<path d="M62 1.5V14.5L78 3L108 11" stroke="#333333" stroke-width="4"/>
<path d="M7.83 44.67H8.53V46.34H8.18V45H3.62V46.34H3.27V44.67H3.82C4.2 44.1367 4.39 43.4267 4.39 42.54V40H7.83V44.67ZM4.26 44.67H7.48V40.33H4.75V42.54C4.75 43.4 4.58667 44.11 4.26 44.67ZM13.4784 40H13.7984V45H13.4484V40.6L10.0484 45H9.72844V40H10.0884V44.4L13.4784 40ZM17.6909 42.41C18.0175 42.4967 18.2675 42.6567 18.4409 42.89C18.6209 43.1167 18.7109 43.3833 18.7109 43.69C18.7109 44.0833 18.5509 44.42 18.2309 44.7C17.9175 44.9733 17.4775 45.11 16.9109 45.11C15.8975 45.11 15.2609 44.72 15.0009 43.94L15.2909 43.77C15.4975 44.4367 16.0375 44.77 16.9109 44.77C17.3575 44.77 17.7109 44.67 17.9709 44.47C18.2309 44.27 18.3609 44.0067 18.3609 43.68C18.3609 43.36 18.2475 43.1033 18.0209 42.91C17.7942 42.71 17.4909 42.61 17.1109 42.61H16.4709V42.28H16.9309C17.2975 42.28 17.5842 42.1867 17.7909 42C18.0042 41.8133 18.1109 41.5667 18.1109 41.26C18.1109 40.96 17.9909 40.7133 17.7509 40.52C17.5109 40.3267 17.2009 40.23 16.8209 40.23C16.4675 40.23 16.1642 40.3067 15.9109 40.46C15.6642 40.6133 15.4875 40.8233 15.3809 41.09L15.0909 40.92C15.2242 40.6067 15.4375 40.3567 15.7309 40.17C16.0242 39.9833 16.3875 39.89 16.8209 39.89C17.3209 39.89 17.7209 40.0233 18.0209 40.29C18.3209 40.55 18.4709 40.8667 18.4709 41.24C18.4709 41.5 18.4042 41.7367 18.2709 41.95C18.1375 42.1567 17.9442 42.31 17.6909 42.41ZM24.434 40H24.784V45H24.434V43.66C24.234 44.1 23.9307 44.4533 23.524 44.72C23.1173 44.98 22.6607 45.11 22.154 45.11C21.434 45.11 20.8207 44.86 20.314 44.36C19.8073 43.8533 19.554 43.2333 19.554 42.5C19.554 41.7667 19.8073 41.15 20.314 40.65C20.8207 40.1433 21.434 39.89 22.154 39.89C22.6607 39.89 23.1173 40.0233 23.524 40.29C23.9307 40.55 24.234 40.9 24.434 41.34V40ZM20.554 44.12C20.994 44.5533 21.5307 44.77 22.164 44.77C22.7973 44.77 23.334 44.5533 23.774 44.12C24.214 43.68 24.434 43.14 24.434 42.5C24.434 41.86 24.214 41.3233 23.774 40.89C23.334 40.45 22.7973 40.23 22.164 40.23C21.5307 40.23 20.994 40.45 20.554 40.89C20.1207 41.3233 19.904 41.86 19.904 42.5C19.904 43.14 20.1207 43.68 20.554 44.12ZM27.2572 39.06V38.76H29.7272V39.06H27.2572ZM30.1972 40H30.5172V45H30.1672V40.6L26.7672 45H26.4472V40H26.8072V44.4L30.1972 40ZM35.8996 40H36.2496V45H35.8996V42.67H32.5396V45H32.1796V40H32.5396V42.33H35.8996V40ZM43.3841 39.89C44.1041 39.89 44.7174 40.1433 45.2241 40.65C45.7307 41.15 45.9841 41.7667 45.9841 42.5C45.9841 43.2333 45.7307 43.8533 45.2241 44.36C44.7174 44.86 44.1041 45.11 43.3841 45.11C42.8707 45.11 42.4141 44.98 42.0141 44.72C41.6141 44.46 41.3107 44.11 41.1041 43.67V47H40.7441V40H41.1041V41.33C41.3107 40.89 41.6141 40.54 42.0141 40.28C42.4141 40.02 42.8707 39.89 43.3841 39.89ZM41.7541 44.12C42.1941 44.5533 42.7307 44.77 43.3641 44.77C43.9974 44.77 44.5307 44.5533 44.9641 44.12C45.4041 43.68 45.6241 43.14 45.6241 42.5C45.6241 41.86 45.4041 41.3233 44.9641 40.89C44.5307 40.45 43.9974 40.23 43.3641 40.23C42.7307 40.23 42.1941 40.45 41.7541 40.89C41.3207 41.3233 41.1041 41.86 41.1041 42.5C41.1041 43.14 41.3207 43.68 41.7541 44.12ZM49.4673 39.89C50.2006 39.89 50.7939 40.15 51.2473 40.67C51.7073 41.19 51.9373 41.8067 51.9373 42.52C51.9373 42.6 51.9339 42.6567 51.9273 42.69H47.2773C47.3173 43.31 47.5473 43.8133 47.9673 44.2C48.3873 44.58 48.9039 44.77 49.5173 44.77C49.9373 44.77 50.3073 44.6833 50.6273 44.51C50.9539 44.33 51.1973 44.0933 51.3573 43.8L51.6673 43.98C51.4673 44.3267 51.1773 44.6033 50.7973 44.81C50.4239 45.01 49.9973 45.11 49.5173 45.11C48.7573 45.11 48.1339 44.8667 47.6473 44.38C47.1606 43.8867 46.9173 43.26 46.9173 42.5C46.9173 41.76 47.1573 41.14 47.6373 40.64C48.1173 40.14 48.7273 39.89 49.4673 39.89ZM49.4673 40.23C48.8539 40.23 48.3406 40.43 47.9273 40.83C47.5206 41.2233 47.3006 41.7333 47.2673 42.36H51.5773C51.5306 41.7133 51.3073 41.1967 50.9073 40.81C50.5139 40.4233 50.0339 40.23 49.4673 40.23ZM57.9848 40V45H57.6348V40.49L55.6348 43.58H55.5648L53.5748 40.51V45H53.2148V40H53.6548L55.6048 42.99L57.5548 40H57.9848ZM61.8905 45.11C61.1639 45.11 60.5472 44.86 60.0405 44.36C59.5339 43.8533 59.2805 43.2333 59.2805 42.5C59.2805 41.7667 59.5339 41.15 60.0405 40.65C60.5472 40.1433 61.1639 39.89 61.8905 39.89C62.6239 39.89 63.2439 40.1433 63.7505 40.65C64.2572 41.15 64.5105 41.7667 64.5105 42.5C64.5105 43.2333 64.2572 43.8533 63.7505 44.36C63.2439 44.86 62.6239 45.11 61.8905 45.11ZM60.2805 44.12C60.7205 44.5533 61.2572 44.77 61.8905 44.77C62.5239 44.77 63.0605 44.5533 63.5005 44.12C63.9405 43.68 64.1605 43.14 64.1605 42.5C64.1605 41.86 63.9405 41.3233 63.5005 40.89C63.0605 40.45 62.5239 40.23 61.8905 40.23C61.2572 40.23 60.7205 40.45 60.2805 40.89C59.8472 41.3233 59.6305 41.86 59.6305 42.5C59.6305 43.14 59.8472 43.68 60.2805 44.12ZM69.5324 40H69.8824V45H69.5324V42.67H66.1724V45H65.8124V40H66.1724V42.33H69.5324V40ZM74.9448 40V40.33H73.0948V45H72.7348V40.33H70.8848V40H74.9448ZM81.0312 45.11C80.3045 45.11 79.6878 44.86 79.1812 44.36C78.6745 43.8533 78.4212 43.2333 78.4212 42.5C78.4212 41.7667 78.6745 41.15 79.1812 40.65C79.6878 40.1433 80.3045 39.89 81.0312 39.89C81.7645 39.89 82.3845 40.1433 82.8912 40.65C83.3978 41.15 83.6512 41.7667 83.6512 42.5C83.6512 43.2333 83.3978 43.8533 82.8912 44.36C82.3845 44.86 81.7645 45.11 81.0312 45.11ZM79.4212 44.12C79.8612 44.5533 80.3978 44.77 81.0312 44.77C81.6645 44.77 82.2012 44.5533 82.6412 44.12C83.0812 43.68 83.3012 43.14 83.3012 42.5C83.3012 41.86 83.0812 41.3233 82.6412 40.89C82.2012 40.45 81.6645 40.23 81.0312 40.23C80.3978 40.23 79.8612 40.45 79.4212 40.89C78.9878 41.3233 78.7712 41.86 78.7712 42.5C78.7712 43.14 78.9878 43.68 79.4212 44.12ZM88.1577 40V40.33H86.3077V45H85.9477V40.33H84.0977V40H88.1577ZM92.8593 44.67H93.5593V46.34H93.2093V45H88.6493V46.34H88.2993V44.67H88.8493C89.2293 44.1367 89.4193 43.4267 89.4193 42.54V40H92.8593V44.67ZM89.2893 44.67H92.5093V40.33H89.7793V42.54C89.7793 43.4 89.616 44.11 89.2893 44.67ZM96.7524 39.89C97.4858 39.89 98.0791 40.15 98.5324 40.67C98.9924 41.19 99.2224 41.8067 99.2224 42.52C99.2224 42.6 99.2191 42.6567 99.2124 42.69H94.5624C94.6024 43.31 94.8324 43.8133 95.2524 44.2C95.6724 44.58 96.1891 44.77 96.8024 44.77C97.2224 44.77 97.5924 44.6833 97.9124 44.51C98.2391 44.33 98.4824 44.0933 98.6424 43.8L98.9524 43.98C98.7524 44.3267 98.4624 44.6033 98.0824 44.81C97.7091 45.01 97.2824 45.11 96.8024 45.11C96.0424 45.11 95.4191 44.8667 94.9324 44.38C94.4458 43.8867 94.2024 43.26 94.2024 42.5C94.2024 41.76 94.4424 41.14 94.9224 40.64C95.4024 40.14 96.0124 39.89 96.7524 39.89ZM96.7524 40.23C96.1391 40.23 95.6258 40.43 95.2124 40.83C94.8058 41.2233 94.5858 41.7333 94.5524 42.36H98.8624C98.8158 41.7133 98.5924 41.1967 98.1924 40.81C97.7991 40.4233 97.3191 40.23 96.7524 40.23ZM104.345 40V45H103.985V40.33H101.225V42.94C101.225 44.4 100.698 45.0867 99.6446 45V44.67C100.058 44.7033 100.365 44.5867 100.565 44.32C100.765 44.0467 100.865 43.5867 100.865 42.94V40H104.345ZM109.628 45H109.148L106.368 42.51V45H106.008V40H106.368V42.3L109.048 40H109.528L106.738 42.4L109.628 45ZM114.746 40H115.096V45H114.746V43.66C114.546 44.1 114.243 44.4533 113.836 44.72C113.43 44.98 112.973 45.11 112.466 45.11C111.746 45.11 111.133 44.86 110.626 44.36C110.12 43.8533 109.866 43.2333 109.866 42.5C109.866 41.7667 110.12 41.15 110.626 40.65C111.133 40.1433 111.746 39.89 112.466 39.89C112.973 39.89 113.43 40.0233 113.836 40.29C114.243 40.55 114.546 40.9 114.746 41.34V40ZM110.866 44.12C111.306 44.5533 111.843 44.77 112.476 44.77C113.11 44.77 113.646 44.5533 114.086 44.12C114.526 43.68 114.746 43.14 114.746 42.5C114.746 41.86 114.526 41.3233 114.086 40.89C113.646 40.45 113.11 40.23 112.476 40.23C111.843 40.23 111.306 40.45 110.866 40.89C110.433 41.3233 110.216 41.86 110.216 42.5C110.216 43.14 110.433 43.68 110.866 44.12Z" fill="#333333"/>
</g>
<defs>
<clipPath id="clip0_287814_3">
<rect width="117" height="47" fill="white"/>
</clipPath>
</defs>
</svg>
