<svg width="41" height="40" viewBox="0 0 41 40" fill="none" xmlns="http://www.w3.org/2000/svg">
<g clip-path="url(#clip0_286731_281)">
<path d="M0.381836 19.2C0.381836 10.1488 0.381833 5.6186 3.19494 2.81116C6.00805 0.00372084 10.5377 0 19.5951 0H21.1962C30.2537 0 34.787 0 37.5964 2.81116C40.4058 5.62233 40.4095 10.1488 40.4095 19.2V20.8C40.4095 29.8512 40.4095 34.3814 37.5964 37.1888C34.7833 39.9963 30.2537 40 21.1962 40H19.5951C10.5377 40 6.00433 40 3.19494 37.1888C0.385557 34.3777 0.381836 29.8512 0.381836 20.8V19.2Z" fill="#38454C"/>
<path fill-rule="evenodd" clip-rule="evenodd" d="M20.3956 8.84668C23.4265 8.84668 23.8063 8.8597 24.9978 8.91366C25.9237 8.93243 26.8396 9.10795 27.7067 9.43273C28.4483 9.71873 29.1218 10.1567 29.6838 10.7183C30.2459 11.28 30.6841 11.9531 30.9703 12.6941C31.2954 13.5606 31.471 14.4759 31.4898 15.4011C31.5438 16.5918 31.5568 16.9713 31.5568 20.0002C31.5568 23.029 31.5438 23.4085 31.4898 24.5992C31.471 25.5244 31.2954 26.4397 30.9703 27.3062C30.6841 28.0473 30.2459 28.7203 29.6838 29.282C29.1218 29.8437 28.4483 30.2816 27.7067 30.5676C26.8396 30.8924 25.9237 31.0679 24.9978 31.0867C23.8063 31.1406 23.4265 31.1537 20.3956 31.1537C17.3647 31.1537 16.9849 31.1406 15.7933 31.0867C14.8675 31.0679 13.9516 30.8924 13.0845 30.5676C12.3429 30.2816 11.6694 29.8437 11.1073 29.282C10.5453 28.7203 10.107 28.0473 9.82083 27.3062C9.49583 26.4397 9.32019 25.5244 9.3014 24.5992C9.24741 23.4085 9.23438 23.029 9.23438 20.0002C9.23438 16.9713 9.24741 16.5918 9.3014 15.4011C9.32019 14.4759 9.49583 13.5606 9.82083 12.6941C10.107 11.9531 10.5453 11.28 11.1073 10.7183C11.6694 10.1567 12.3429 9.71873 13.0845 9.43273C13.9516 9.10795 14.8675 8.93243 15.7933 8.91366C16.9849 8.8597 17.3647 8.84668 20.3956 8.84668ZM24.9048 10.9211C23.7281 10.8671 23.3763 10.856 20.3956 10.856C17.4149 10.856 17.0631 10.8671 15.8864 10.9211C15.1781 10.9292 14.4764 11.0595 13.8124 11.3062C13.3313 11.4914 12.8943 11.7754 12.5297 12.1397C12.1651 12.5041 11.881 12.9407 11.6956 13.4216C11.4488 14.0851 11.3184 14.7863 11.3102 15.4941C11.2562 16.6699 11.2451 17.0216 11.2451 20.0002C11.2451 22.9788 11.2562 23.3304 11.3102 24.5062C11.3184 25.2141 11.4488 25.9152 11.6956 26.5788C11.881 27.0596 12.1651 27.4963 12.5297 27.8606C12.8943 28.2249 13.3313 28.5089 13.8124 28.6941C14.4764 28.9408 15.1781 29.0711 15.8864 29.0792C17.0631 29.1332 17.4149 29.1444 20.3956 29.1444C23.3763 29.1444 23.7281 29.1332 24.9048 29.0792C25.6131 29.0711 26.3147 28.9408 26.9787 28.6941C27.4599 28.5089 27.8969 28.2249 28.2615 27.8606C28.6261 27.4963 28.9102 27.0596 29.0956 26.5788C29.3424 25.9152 29.4728 25.2141 29.4809 24.5062C29.5349 23.3304 29.5461 22.9788 29.5461 20.0002C29.5461 17.0216 29.5349 16.6699 29.4809 15.4941C29.4728 14.7863 29.3424 14.0851 29.0956 13.4216C28.9102 12.9407 28.6261 12.5041 28.2615 12.1397C27.8969 11.7754 27.4599 11.4914 26.9787 11.3062C26.3147 11.0595 25.6131 10.9292 24.9048 10.9211ZM20.3956 23.7174C21.132 23.7174 21.8519 23.4991 22.4643 23.0903C23.0766 22.6814 23.5538 22.1003 23.8357 21.4204C24.1175 20.7405 24.1912 19.9923 24.0475 19.2705C23.9039 18.5487 23.5493 17.8857 23.0285 17.3654C22.5078 16.845 21.8443 16.4906 21.122 16.347C20.3997 16.2034 19.651 16.2771 18.9707 16.5588C18.2903 16.8404 17.7088 17.3173 17.2996 17.9292C16.8905 18.5411 16.6721 19.2605 16.6721 19.9964C16.6721 20.9833 17.0644 21.9297 17.7627 22.6275C18.461 23.3254 19.4081 23.7174 20.3956 23.7174ZM20.3956 14.2718C21.5293 14.2718 22.6376 14.6078 23.5803 15.2372C24.523 15.8666 25.2577 16.7613 25.6916 17.808C26.1255 18.8547 26.239 20.0065 26.0178 21.1177C25.7966 22.2289 25.2506 23.2496 24.449 24.0507C23.6473 24.8519 22.6259 25.3974 21.5139 25.6185C20.4019 25.8395 19.2494 25.7261 18.2019 25.2925C17.1545 24.8589 16.2592 24.1247 15.6293 23.1827C14.9994 22.2407 14.6632 21.1331 14.6632 20.0002C14.6632 19.2479 14.8115 18.503 15.0996 17.808C15.3877 17.113 15.8099 16.4815 16.3422 15.9496C17.4172 14.8753 18.8753 14.2718 20.3956 14.2718ZM27.6937 14.0467C27.6937 14.3116 27.615 14.5706 27.4678 14.7909C27.3205 15.0112 27.1111 15.1829 26.8662 15.2842C26.6212 15.3856 26.3517 15.4122 26.0917 15.3605C25.8317 15.3088 25.5928 15.1812 25.4054 14.9939C25.2179 14.8065 25.0902 14.5679 25.0385 14.308C24.9868 14.0482 25.0133 13.7788 25.1148 13.5341C25.2162 13.2893 25.388 13.0801 25.6085 12.9329C25.8289 12.7857 26.0881 12.7071 26.3532 12.7071C26.7087 12.7071 27.0497 12.8483 27.3011 13.0995C27.5524 13.3507 27.6937 13.6914 27.6937 14.0467Z" fill="white"/>
</g>
<defs>
<clipPath id="clip0_286731_281">
<rect width="40.0277" height="40" fill="white" transform="translate(0.381836)"/>
</clipPath>
</defs>
</svg>
