<svg width="41" height="41" viewBox="0 0 41 41" fill="none" xmlns="http://www.w3.org/2000/svg">
<g clip-path="url(#clip0_286765_307)">
<path d="M0.228516 19.6043C0.228516 10.5531 0.228513 6.0229 3.05532 3.21546C5.88212 0.408018 10.4338 0.404297 19.5354 0.404297H21.1443C30.2458 0.404297 34.8012 0.404297 37.6243 3.21546C40.4474 6.02662 40.4511 10.5531 40.4511 19.6043V21.2043C40.4511 30.2555 40.4511 34.7857 37.6243 37.5931C34.7975 40.4006 30.2458 40.4043 21.1443 40.4043H19.5354C10.4338 40.4043 5.87838 40.4043 3.05532 37.5931C0.232254 34.782 0.228516 30.2555 0.228516 21.2043V19.6043Z" fill="#38454C"/>
<path d="M9.50195 31.3565L11.0547 25.7155C9.85199 23.6396 9.37152 21.227 9.68782 18.8519C10.0041 16.4768 11.0995 14.2718 12.8042 12.5788C14.5089 10.8858 16.7276 9.79934 19.1163 9.48789C21.505 9.17644 23.9304 9.6574 26.0163 10.8562C28.1022 12.055 29.7321 13.9047 30.6534 16.1184C31.5747 18.3322 31.7359 20.7863 31.1119 23.1004C30.4879 25.4145 29.1137 27.4593 27.2022 28.9177C25.2908 30.376 22.949 31.1666 20.5398 31.1667C18.7128 31.167 16.915 30.7115 15.3108 29.842L9.50195 31.3565ZM15.569 27.8718L15.902 28.0672C17.3036 28.8934 18.903 29.3291 20.5323 29.3285C22.5488 29.3282 24.5079 28.6615 26.1019 27.4332C27.6958 26.205 28.8342 24.4848 29.338 22.5431C29.8419 20.6014 29.6826 18.5483 28.8854 16.7064C28.0881 14.8645 26.6979 13.3383 24.9334 12.3677C23.1689 11.397 21.1301 11.037 19.1374 11.3441C17.1448 11.6513 15.3112 12.6082 13.925 14.0645C12.5387 15.5208 11.6784 17.3939 11.4792 19.3894C11.28 21.3849 11.7533 23.3896 12.8245 25.0885L13.0415 25.4309L12.123 28.7704L15.569 27.8718Z" fill="white"/>
<path fill-rule="evenodd" clip-rule="evenodd" d="M26.0451 22.8708C25.9778 22.7573 25.7944 22.6847 25.5213 22.5526C25.2482 22.4206 23.903 21.7582 23.6505 21.6689C23.3979 21.5796 23.2183 21.5313 23.035 21.8047C22.8516 22.0782 22.3297 22.6885 22.1688 22.8708C22.0079 23.0531 21.8507 23.0754 21.5776 22.9396C20.7715 22.6188 20.0272 22.1618 19.3775 21.5889C18.7797 21.0389 18.2671 20.4038 17.8566 19.7043C17.6975 19.4326 17.8397 19.2857 17.9763 19.1461C18.1129 19.0066 18.2494 18.828 18.386 18.6699C18.4983 18.5322 18.5903 18.3794 18.6591 18.2159C18.6959 18.141 18.7131 18.0581 18.7091 17.9749C18.7052 17.8917 18.6803 17.8108 18.6367 17.7396C18.5693 17.6038 18.0212 16.2643 17.7948 15.7192C17.5685 15.174 17.3458 15.2615 17.1793 15.2522C17.0128 15.2429 16.837 15.2522 16.6536 15.2522C16.5186 15.2577 16.386 15.2902 16.2639 15.3477C16.1418 15.4052 16.0325 15.4866 15.9427 15.5871C15.6334 15.8786 15.3885 16.2309 15.2236 16.6217C15.0586 17.0125 14.9774 17.4331 14.9848 17.8568C14.9848 19.1945 15.9652 20.4875 16.1073 20.6699C16.2495 20.8522 18.0362 23.5982 20.7844 24.7759C21.2936 24.9949 21.8145 25.1862 22.3446 25.3489C22.9019 25.5186 23.4915 25.5556 24.0658 25.4568C24.5915 25.3787 25.6841 24.8001 25.9123 24.1545C26.1405 23.5089 26.1218 22.9843 26.0451 22.8708Z" fill="white"/>
</g>
<defs>
<clipPath id="clip0_286765_307">
<rect width="40.2226" height="40" fill="white" transform="translate(0.228516 0.404297)"/>
</clipPath>
</defs>
</svg>
