<svg width="14" height="17" viewBox="0 0 14 17" xmlns="http://www.w3.org/2000/svg">
<path d="M13.5 16.9993H12.0556V13.4272C12.055 12.8719 11.8298 12.3395 11.4294 11.9468C11.029 11.5541 10.4862 11.3332 9.91994 11.3327H4.08006C3.51383 11.3332 2.97096 11.5541 2.57058 11.9468C2.1702 12.3395 1.94502 12.8719 1.94444 13.4272V16.9993H0.5V13.4272C0.501147 12.4963 0.878698 11.6039 1.54984 10.9457C2.22098 10.2874 3.13092 9.91714 4.08006 9.91602H9.91994C10.8691 9.91714 11.779 10.2874 12.4502 10.9457C13.1213 11.6039 13.4989 12.4963 13.5 13.4272V16.9993Z"/>
<path d="M6.99935 8.5C6.1423 8.5 5.30449 8.25074 4.59188 7.78375C3.87927 7.31675 3.32385 6.65299 2.99587 5.87641C2.66789 5.09982 2.58208 4.24529 2.74928 3.42087C2.91648 2.59645 3.32919 1.83917 3.93522 1.2448C4.54125 0.650425 5.31338 0.245652 6.15396 0.0816645C6.99454 -0.0823227 7.86583 0.00184147 8.65765 0.323514C9.44946 0.645186 10.1262 1.18992 10.6024 1.88883C11.0785 2.58774 11.3327 3.40943 11.3327 4.25C11.3315 5.37683 10.8746 6.45718 10.0622 7.25396C9.24981 8.05075 8.14827 8.49888 6.99935 8.5ZM6.99935 1.41667C6.42798 1.41667 5.86945 1.58284 5.39437 1.89417C4.9193 2.2055 4.54902 2.64801 4.33037 3.16573C4.11171 3.68346 4.0545 4.25315 4.16597 4.80276C4.27744 5.35237 4.55258 5.85722 4.9566 6.25347C5.36062 6.64972 5.87537 6.91957 6.43576 7.02889C6.99615 7.13822 7.57701 7.08211 8.10488 6.86766C8.63276 6.65321 9.08394 6.29006 9.40138 5.82412C9.71881 5.35818 9.88824 4.81038 9.88824 4.25C9.88824 3.49856 9.58388 2.77789 9.04211 2.24653C8.50033 1.71518 7.76553 1.41667 6.99935 1.41667Z"/>
</svg>
