<svg width="23" height="24" viewBox="0 0 23 24" fill="none" xmlns="http://www.w3.org/2000/svg">
<path fill-rule="evenodd" clip-rule="evenodd" d="M11.3956 0.84668C14.4265 0.84668 14.8063 0.859703 15.9978 0.913657C16.9237 0.932435 17.8396 1.10795 18.7067 1.43273C19.4483 1.71873 20.1218 2.15666 20.6838 2.71835C21.2459 3.28004 21.6841 3.95305 21.9703 4.69412C22.2954 5.56062 22.471 6.47592 22.4898 7.4011C22.5438 8.5918 22.5568 8.97133 22.5568 12.0002C22.5568 15.029 22.5438 15.4085 22.4898 16.5992C22.471 17.5244 22.2954 18.4397 21.9703 19.3062C21.6841 20.0473 21.2459 20.7203 20.6838 21.282C20.1218 21.8437 19.4483 22.2816 18.7067 22.5676C17.8396 22.8924 16.9237 23.0679 15.9978 23.0867C14.8063 23.1406 14.4265 23.1537 11.3956 23.1537C8.36466 23.1537 7.98486 23.1406 6.79333 23.0867C5.86752 23.0679 4.95159 22.8924 4.08449 22.5676C3.3429 22.2816 2.66942 21.8437 2.10734 21.282C1.54527 20.7203 1.10704 20.0473 0.820832 19.3062C0.495826 18.4397 0.320192 17.5244 0.301401 16.5992C0.24741 15.4085 0.234375 15.029 0.234375 12.0002C0.234375 8.97133 0.24741 8.5918 0.301401 7.4011C0.320192 6.47592 0.495826 5.56062 0.820832 4.69412C1.10704 3.95305 1.54527 3.28004 2.10734 2.71835C2.66942 2.15666 3.3429 1.71873 4.08449 1.43273C4.95159 1.10795 5.86752 0.932435 6.79333 0.913657C7.98486 0.859703 8.36466 0.84668 11.3956 0.84668ZM15.9048 2.9211C14.7281 2.86715 14.3763 2.85598 11.3956 2.85598C8.41492 2.85598 8.06305 2.86715 6.88642 2.9211C6.17807 2.92924 5.47643 3.05953 4.81243 3.30621C4.33128 3.49145 3.89431 3.77539 3.52972 4.13974C3.16512 4.50408 2.88097 4.94074 2.69561 5.42156C2.44876 6.08511 2.31839 6.78625 2.31023 7.49412C2.25624 8.66994 2.24507 9.02156 2.24507 12.0002C2.24507 14.9788 2.25624 15.3304 2.31023 16.5062C2.31839 17.2141 2.44876 17.9152 2.69561 18.5788C2.88097 19.0596 3.16512 19.4963 3.52972 19.8606C3.89431 20.2249 4.33128 20.5089 4.81243 20.6941C5.47643 20.9408 6.17807 21.0711 6.88642 21.0792C8.06305 21.1332 8.41492 21.1444 11.3956 21.1444C14.3763 21.1444 14.7281 21.1332 15.9048 21.0792C16.6131 21.0711 17.3147 20.9408 17.9787 20.6941C18.4599 20.5089 18.8969 20.2249 19.2615 19.8606C19.6261 19.4963 19.9102 19.0596 20.0956 18.5788C20.3424 17.9152 20.4728 17.2141 20.4809 16.5062C20.5349 15.3304 20.5461 14.9788 20.5461 12.0002C20.5461 9.02156 20.5349 8.66994 20.4809 7.49412C20.4728 6.78625 20.3424 6.08511 20.0956 5.42156C19.9102 4.94074 19.6261 4.50408 19.2615 4.13974C18.8969 3.77539 18.4599 3.49145 17.9787 3.30621C17.3147 3.05953 16.6131 2.92924 15.9048 2.9211ZM11.3956 15.7174C12.132 15.7174 12.8519 15.4991 13.4643 15.0903C14.0766 14.6814 14.5538 14.1003 14.8357 13.4204C15.1175 12.7405 15.1912 11.9923 15.0475 11.2705C14.9039 10.5487 14.5493 9.88573 14.0285 9.36535C13.5078 8.84497 12.8443 8.49059 12.122 8.34701C11.3997 8.20344 10.651 8.27713 9.97067 8.55876C9.29029 8.84038 8.70875 9.31731 8.29961 9.92921C7.89046 10.5411 7.67208 11.2605 7.67208 11.9964C7.67208 12.9833 8.06438 13.9297 8.76267 14.6275C9.46096 15.3254 10.4081 15.7174 11.3956 15.7174ZM11.3956 6.2718C12.5293 6.2718 13.6376 6.60776 14.5803 7.2372C15.523 7.86664 16.2577 8.76129 16.6916 9.80801C17.1255 10.8547 17.239 12.0065 17.0178 13.1177C16.7966 14.2289 16.2506 15.2496 15.449 16.0507C14.6473 16.8519 13.6259 17.3974 12.5139 17.6185C11.4019 17.8395 10.2494 17.7261 9.20192 17.2925C8.15447 16.8589 7.2592 16.1247 6.62932 15.1827C5.99945 14.2407 5.66325 13.1331 5.66325 12.0002C5.66325 11.2479 5.81152 10.503 6.0996 9.80801C6.38767 9.11302 6.80992 8.48153 7.34221 7.9496C8.41724 6.87532 9.87528 6.2718 11.3956 6.2718ZM18.6937 6.04668C18.6937 6.31161 18.615 6.5706 18.4678 6.79089C18.3205 7.01117 18.1111 7.18286 17.8662 7.28425C17.6212 7.38563 17.3517 7.41216 17.0917 7.36048C16.8317 7.30879 16.5928 7.18121 16.4054 6.99387C16.2179 6.80654 16.0902 6.56785 16.0385 6.30801C15.9868 6.04817 16.0133 5.77883 16.1148 5.53406C16.2162 5.28929 16.388 5.08009 16.6085 4.9329C16.8289 4.78571 17.0881 4.70715 17.3532 4.70715C17.7087 4.70715 18.0497 4.84827 18.3011 5.09949C18.5524 5.3507 18.6937 5.69141 18.6937 6.04668Z" fill="white"/>
</svg>
