<svg width="15" height="12" viewBox="0 0 15 12" fill="none" xmlns="http://www.w3.org/2000/svg">
<path fill-rule="evenodd" clip-rule="evenodd" d="M7.95757 9.40442C7.41988 9.93903 6.88799 10.4642 6.36068 10.9941C6.17632 11.1794 5.96892 11.2817 5.70448 11.2672C5.52438 11.2573 5.42328 11.1756 5.36809 11.0005C4.96455 9.71979 4.55442 8.44129 4.15271 7.16005C4.11357 7.0353 4.05462 6.97535 3.93185 6.937C2.98034 6.63975 2.03073 6.33605 1.08234 6.02862C0.941915 5.9831 0.799738 5.92458 0.677903 5.84199C0.465855 5.69828 0.435593 5.46979 0.629233 5.30434C0.808154 5.15145 1.02027 5.02344 1.23759 4.93562C2.43989 4.44982 3.64832 3.97977 4.85457 3.50411C7.75623 2.35991 10.658 1.21583 13.5594 0.0710776C14.1157 -0.148379 14.5478 0.155977 14.4957 0.768788C14.4614 1.17275 14.3585 1.57145 14.2759 1.97026C13.6329 5.07438 12.9874 8.17796 12.3427 11.2817C12.3415 11.2877 12.3411 11.2938 12.3398 11.2998C12.1821 12.0098 11.6772 12.2039 11.1015 11.7711C10.102 11.0197 9.10512 10.2649 8.10698 9.51172C8.05978 9.47611 8.01097 9.4427 7.95757 9.40442ZM5.74803 10.3826C5.76357 10.3098 5.77435 10.2761 5.77751 10.2418C5.84093 9.54378 5.90722 8.84599 5.96337 8.14733C5.97587 7.99228 6.02114 7.87778 6.13853 7.77011C7.65313 6.3811 9.16303 4.98674 10.6741 3.59377C11.104 3.19753 11.5356 2.80326 11.9613 2.4024C12.006 2.36032 12.0157 2.27944 12.0416 2.21658C11.9759 2.19755 11.9022 2.14931 11.846 2.16531C11.7163 2.20227 11.5855 2.255 11.4717 2.32811C9.22499 3.77191 6.98117 5.22036 4.73439 6.66401C4.62007 6.73746 4.58745 6.79791 4.63329 6.93862C4.98905 8.03048 5.3345 9.12587 5.68368 10.22C5.69736 10.2629 5.71666 10.3038 5.74803 10.3826Z" fill="#333333"/>
</svg>
