<svg width="14" height="17" viewBox="0 0 14 17" fill="none" xmlns="http://www.w3.org/2000/svg">
<path d="M8.52016 0.900391H5.48016C2.55416 0.900391 0.160156 3.29439 0.160156 6.22039V8.50039C0.160156 10.5524 1.35716 12.4334 3.20016 13.3074V15.8534C3.20016 16.0814 3.48516 16.1954 3.63716 16.0244L5.84116 13.8204H8.52016C11.4462 13.8204 13.8402 11.4264 13.8402 8.50039V6.22039C13.8402 3.29439 11.4462 0.900391 8.52016 0.900391ZM10.5152 10.8754L9.73616 11.6354C8.91916 12.4334 6.81016 11.5214 4.94816 9.62139C3.08616 7.72139 2.26916 5.59339 3.04816 4.79539L3.80816 4.03539C4.09316 3.75039 4.56816 3.76939 4.89116 4.05439L5.99316 5.19439C6.39216 5.59339 6.22116 6.27739 5.70816 6.42939C5.34716 6.54339 5.10016 6.94239 5.21416 7.30339C5.40416 8.13939 6.46816 9.20339 7.26616 9.41239C7.62716 9.48839 8.02616 9.29839 8.15916 8.93739C8.33016 8.42439 9.01416 8.27239 9.39416 8.67139L10.4962 9.81139C10.8002 10.0774 10.8002 10.5524 10.5152 10.8754ZM7.68416 4.51039C7.60816 4.51039 7.53216 4.51039 7.45616 4.52939C7.32316 4.54839 7.19016 4.43439 7.17116 4.30139C7.15216 4.16839 7.26616 4.03539 7.39916 4.01639C7.49416 3.99739 7.58916 3.99739 7.68416 3.99739C9.07116 3.99739 10.2112 5.13739 10.2112 6.52439C10.2112 6.61939 10.2112 6.71439 10.1922 6.80939C10.1732 6.94239 10.0402 7.05639 9.90716 7.03739C9.77416 7.01839 9.66016 6.88539 9.67916 6.75239C9.67916 6.67639 9.69816 6.60039 9.69816 6.52439C9.71716 5.42239 8.80516 4.51039 7.68416 4.51039ZM9.20416 6.54339C9.20416 6.67639 9.09016 6.79039 8.95716 6.79039C8.82416 6.79039 8.71016 6.67639 8.71016 6.54339C8.71016 5.99239 8.25416 5.53639 7.70316 5.53639C7.57016 5.53639 7.45616 5.42239 7.45616 5.28939C7.45616 5.15639 7.57016 5.04239 7.70316 5.04239C8.52016 5.02339 9.20416 5.70739 9.20416 6.54339ZM11.1422 7.36039C11.1042 7.49339 10.9712 7.58839 10.8192 7.55039C10.6862 7.51239 10.6102 7.37939 10.6482 7.24639C10.7052 7.01839 10.7242 6.79039 10.7242 6.54339C10.7242 4.87139 9.35616 3.50339 7.68416 3.50339C7.60816 3.50339 7.53216 3.50339 7.45616 3.50339C7.32316 3.50339 7.19016 3.40839 7.19016 3.27539C7.19016 3.14239 7.28516 3.00939 7.41816 3.00939C7.51316 3.00939 7.60816 2.99039 7.68416 2.99039C9.64116 2.99039 11.2372 4.58639 11.2372 6.54339C11.2372 6.80939 11.1992 7.09439 11.1422 7.36039Z" fill="white" fill-opacity="0.5"/>
</svg>
