<svg width="13" height="13" viewBox="0 0 13 13" fill="none" xmlns="http://www.w3.org/2000/svg">
<path fill-rule="evenodd" clip-rule="evenodd" d="M4.69314 3.34562C4.56767 3.04514 4.47253 3.03372 4.28246 3.02604C4.21776 3.0223 4.14567 3.01855 4.0657 3.01855C3.81841 3.01855 3.55989 3.09084 3.40389 3.25058C3.21382 3.4446 2.74219 3.89722 2.74219 4.82533C2.74219 5.75354 3.41906 6.65122 3.51035 6.77689C3.60549 6.90226 4.83003 8.8347 6.73144 9.62228C8.21833 10.2385 8.65954 10.1814 8.99792 10.1092C9.49231 10.0027 10.1122 9.63735 10.2682 9.19624C10.4241 8.75493 10.4241 8.37833 10.3784 8.29846C10.3328 8.21859 10.2072 8.1731 10.0171 8.07786C9.82705 7.98272 8.90289 7.52625 8.72798 7.46539C8.55682 7.40078 8.39334 7.42363 8.26413 7.60622C8.08154 7.8611 7.9029 8.11982 7.75832 8.27571C7.64428 8.39744 7.45785 8.41271 7.30195 8.348C7.09277 8.26065 6.50719 8.05501 5.78462 7.41221C5.22554 6.91398 4.84529 6.29403 4.73509 6.1076C4.62479 5.91743 4.72367 5.80703 4.81112 5.70441C4.90626 5.58642 4.99745 5.50281 5.09249 5.39241C5.18762 5.28211 5.2408 5.22509 5.30166 5.09568C5.36637 4.97021 5.32067 4.8408 5.27507 4.74567C5.22938 4.65033 4.84914 3.72212 4.69314 3.34562ZM6.49785 0.0585938C2.9308 0.0585938 0.0292969 2.9609 0.0292969 6.52897C0.0292969 7.94398 0.485667 9.25637 1.26142 10.3215L0.455135 12.7256L2.94222 11.9307C3.96516 12.6078 5.18586 12.9995 6.50169 12.9995C10.0687 12.9995 12.9702 10.097 12.9702 6.52917C12.9702 2.96111 10.0687 0.058796 6.50169 0.058796H6.49795V0.0585938H6.49785Z" fill="white" fill-opacity="0.5"/>
</svg>
